M48
; DRILL file {KiCad (5.1.6)-1} date 08/24/20 17:46:28
; FORMAT={-:-/ absolute / inch / decimal}
; #@! TF.CreationDate,2020-08-24T17:46:28+02:00
; #@! TF.GenerationSoftware,Kicad,Pcbnew,(5.1.6)-1
; #@! TF.FileFunction,Plated,1,2,PTH
FMAT,2
INCH
T1C0.0185
T2C0.0315
T3C0.0362
T4C0.0394
T5C0.0433
T6C0.0472
T7C0.0591
T8C0.0906
%
G90
G05
T1
X6.9809Y-2.97
X7.0191Y-2.97
T2
X6.94Y-2.83
X7.24Y-2.83
X5.95Y-3.68
X6.0484Y-3.68
X5.125Y-3.18
X5.425Y-3.18
X5.7Y-2.475
X6.0Y-2.475
X5.365Y-2.785
X5.465Y-2.785
X5.565Y-2.785
X7.1216Y-2.97
X7.22Y-2.97
X6.85Y-3.53
X7.15Y-3.53
X6.53Y-2.83
X6.83Y-2.83
X5.9516Y-3.83
X6.05Y-3.83
X5.7Y-2.83
X6.0Y-2.83
X4.725Y-3.38
X5.025Y-3.38
X5.0Y-2.73
X5.0Y-3.03
X5.1Y-2.73
X5.1Y-3.03
X5.2Y-2.73
X5.2Y-3.03
X5.6Y-3.105
X5.6Y-3.405
X5.7Y-3.105
X5.7Y-3.405
X5.8Y-3.105
X5.8Y-3.405
X5.9Y-3.105
X5.9Y-3.405
X6.0Y-3.105
X6.0Y-3.405
X6.1Y-3.105
X6.1Y-3.405
X6.2Y-3.105
X6.2Y-3.405
X6.3Y-3.105
X6.3Y-3.405
X6.4Y-3.105
X6.4Y-3.405
X6.5Y-3.105
X6.5Y-3.405
X6.75Y-3.105
X6.75Y-3.405
X6.85Y-3.105
X6.85Y-3.405
X6.95Y-3.105
X6.95Y-3.405
X7.05Y-3.105
X7.05Y-3.405
X6.9516Y-3.82
X7.05Y-3.82
X4.725Y-3.18
X5.025Y-3.18
X5.7Y-2.65
X6.0Y-2.65
X6.55Y-2.97
X6.6484Y-2.97
X4.785Y-3.585
X4.785Y-3.685
X4.785Y-3.785
X6.78Y-2.97
X6.8784Y-2.97
X6.12Y-2.83
X6.42Y-2.83
X5.9516Y-3.53
X6.05Y-3.53
X5.125Y-3.38
X5.425Y-3.38
X5.0Y-3.53
X5.0Y-3.83
X5.1Y-3.53
X5.1Y-3.83
X5.2Y-3.53
X5.2Y-3.83
X6.85Y-3.68
X7.15Y-3.68
X4.785Y-2.785
X4.785Y-2.885
X4.785Y-2.985
T3
X6.4808Y-3.6446
X6.4808Y-3.7233
X6.5792Y-3.6446
X6.5792Y-3.7233
T4
X6.2Y-3.53
X6.3Y-3.53
X6.4Y-3.53
X6.5Y-3.53
X6.6Y-3.53
X6.7Y-3.53
X5.4Y-2.97
X5.5Y-2.97
X5.6Y-2.97
X5.7Y-2.97
X5.8Y-2.97
X5.9Y-2.97
X6.0Y-2.97
X6.1Y-2.97
X6.2Y-2.97
X6.3Y-2.97
X6.4Y-2.97
T5
X6.14Y-2.475
X6.14Y-2.6522
X6.3959Y-2.475
X6.3959Y-2.6522
X5.569Y-3.755
X5.669Y-3.755
X5.769Y-3.755
X6.96Y-2.475
X6.96Y-2.6522
X7.2159Y-2.475
X7.2159Y-2.6522
X6.55Y-2.475
X6.55Y-2.6522
X6.8059Y-2.475
X6.8059Y-2.6522
T6
X7.52Y-2.8
X7.52Y-3.0
X7.52Y-3.59
X7.52Y-3.79
X3.375Y-2.805
X3.375Y-3.005
X3.38Y-3.605
X3.38Y-3.805
T7
X3.7909Y-3.4438
X3.7909Y-3.9162
X4.2713Y-3.4438
X4.2713Y-3.9162
X4.35Y-3.68
X3.7909Y-2.6438
X3.7909Y-3.1162
X4.2713Y-2.6438
X4.2713Y-3.1162
X4.35Y-2.88
T8
X6.293Y-3.83
X6.767Y-3.83
T0
M30
