G04 #@! TF.GenerationSoftware,KiCad,Pcbnew,(5.1.6)-1*
G04 #@! TF.CreationDate,2020-08-24T17:46:23+02:00*
G04 #@! TF.ProjectId,timer,74696d65-722e-46b6-9963-61645f706362,1*
G04 #@! TF.SameCoordinates,Original*
G04 #@! TF.FileFunction,Legend,Top*
G04 #@! TF.FilePolarity,Positive*
%FSLAX46Y46*%
G04 Gerber Fmt 4.6, Leading zero omitted, Abs format (unit mm)*
G04 Created by KiCad (PCBNEW (5.1.6)-1) date 2020-08-24 17:46:23*
%MOMM*%
%LPD*%
G01*
G04 APERTURE LIST*
%ADD10C,0.150000*%
%ADD11C,0.010000*%
%ADD12C,0.120000*%
%ADD13C,0.200000*%
%ADD14C,0.100000*%
%ADD15C,0.800000*%
G04 APERTURE END LIST*
D10*
X128611904Y-61666380D02*
X128611904Y-60666380D01*
X128992857Y-60666380D01*
X129088095Y-60714000D01*
X129135714Y-60761619D01*
X129183333Y-60856857D01*
X129183333Y-60999714D01*
X129135714Y-61094952D01*
X129088095Y-61142571D01*
X128992857Y-61190190D01*
X128611904Y-61190190D01*
X129611904Y-61666380D02*
X129611904Y-60666380D01*
X130659523Y-61571142D02*
X130611904Y-61618761D01*
X130469047Y-61666380D01*
X130373809Y-61666380D01*
X130230952Y-61618761D01*
X130135714Y-61523523D01*
X130088095Y-61428285D01*
X130040476Y-61237809D01*
X130040476Y-61094952D01*
X130088095Y-60904476D01*
X130135714Y-60809238D01*
X130230952Y-60714000D01*
X130373809Y-60666380D01*
X130469047Y-60666380D01*
X130611904Y-60714000D01*
X130659523Y-60761619D01*
X131088095Y-61666380D02*
X131088095Y-60666380D01*
X131659523Y-61666380D02*
X131230952Y-61094952D01*
X131659523Y-60666380D02*
X131088095Y-61237809D01*
X132088095Y-61666380D02*
X132088095Y-60666380D01*
X132421428Y-60666380D02*
X132992857Y-60666380D01*
X132707142Y-61666380D02*
X132707142Y-60666380D01*
X133992857Y-60666380D02*
X134611904Y-60666380D01*
X134278571Y-61047333D01*
X134421428Y-61047333D01*
X134516666Y-61094952D01*
X134564285Y-61142571D01*
X134611904Y-61237809D01*
X134611904Y-61475904D01*
X134564285Y-61571142D01*
X134516666Y-61618761D01*
X134421428Y-61666380D01*
X134135714Y-61666380D01*
X134040476Y-61618761D01*
X133992857Y-61571142D01*
X136516666Y-60618761D02*
X135659523Y-61904476D01*
X138040476Y-60999714D02*
X138040476Y-61666380D01*
X137802380Y-60618761D02*
X137564285Y-61333047D01*
X138183333Y-61333047D01*
X187397023Y-86554904D02*
X186939880Y-86554904D01*
X187168452Y-86554904D02*
X187168452Y-85754904D01*
X187092261Y-85869190D01*
X187016071Y-85945380D01*
X186939880Y-85983476D01*
X187892261Y-85754904D02*
X187968452Y-85754904D01*
X188044642Y-85793000D01*
X188082738Y-85831095D01*
X188120833Y-85907285D01*
X188158928Y-86059666D01*
X188158928Y-86250142D01*
X188120833Y-86402523D01*
X188082738Y-86478714D01*
X188044642Y-86516809D01*
X187968452Y-86554904D01*
X187892261Y-86554904D01*
X187816071Y-86516809D01*
X187777976Y-86478714D01*
X187739880Y-86402523D01*
X187701785Y-86250142D01*
X187701785Y-86059666D01*
X187739880Y-85907285D01*
X187777976Y-85831095D01*
X187816071Y-85793000D01*
X187892261Y-85754904D01*
X188463690Y-86326333D02*
X188844642Y-86326333D01*
X188387500Y-86554904D02*
X188654166Y-85754904D01*
X188920833Y-86554904D01*
X189682738Y-86173952D02*
X189644642Y-86135857D01*
X189568452Y-86097761D01*
X189492261Y-86097761D01*
X189416071Y-86135857D01*
X189377976Y-86173952D01*
X189339880Y-86250142D01*
X189339880Y-86326333D01*
X189377976Y-86402523D01*
X189416071Y-86440619D01*
X189492261Y-86478714D01*
X189568452Y-86478714D01*
X189644642Y-86440619D01*
X189682738Y-86402523D01*
X189682738Y-86097761D02*
X189682738Y-86402523D01*
X189720833Y-86440619D01*
X189758928Y-86440619D01*
X189835119Y-86402523D01*
X189873214Y-86326333D01*
X189873214Y-86135857D01*
X189797023Y-86021571D01*
X189682738Y-85945380D01*
X189530357Y-85907285D01*
X189377976Y-85945380D01*
X189263690Y-86021571D01*
X189187500Y-86135857D01*
X189149404Y-86288238D01*
X189187500Y-86440619D01*
X189263690Y-86554904D01*
X189377976Y-86631095D01*
X189530357Y-86669190D01*
X189682738Y-86631095D01*
X189797023Y-86554904D01*
X190368452Y-85754904D02*
X190444642Y-85754904D01*
X190520833Y-85793000D01*
X190558928Y-85831095D01*
X190597023Y-85907285D01*
X190635119Y-86059666D01*
X190635119Y-86250142D01*
X190597023Y-86402523D01*
X190558928Y-86478714D01*
X190520833Y-86516809D01*
X190444642Y-86554904D01*
X190368452Y-86554904D01*
X190292261Y-86516809D01*
X190254166Y-86478714D01*
X190216071Y-86402523D01*
X190177976Y-86250142D01*
X190177976Y-86059666D01*
X190216071Y-85907285D01*
X190254166Y-85831095D01*
X190292261Y-85793000D01*
X190368452Y-85754904D01*
X190901785Y-85754904D02*
X191397023Y-85754904D01*
X191130357Y-86059666D01*
X191244642Y-86059666D01*
X191320833Y-86097761D01*
X191358928Y-86135857D01*
X191397023Y-86212047D01*
X191397023Y-86402523D01*
X191358928Y-86478714D01*
X191320833Y-86516809D01*
X191244642Y-86554904D01*
X191016071Y-86554904D01*
X190939880Y-86516809D01*
X190901785Y-86478714D01*
X191892261Y-85754904D02*
X191968452Y-85754904D01*
X192044642Y-85793000D01*
X192082738Y-85831095D01*
X192120833Y-85907285D01*
X192158928Y-86059666D01*
X192158928Y-86250142D01*
X192120833Y-86402523D01*
X192082738Y-86478714D01*
X192044642Y-86516809D01*
X191968452Y-86554904D01*
X191892261Y-86554904D01*
X191816071Y-86516809D01*
X191777976Y-86478714D01*
X191739880Y-86402523D01*
X191701785Y-86250142D01*
X191701785Y-86059666D01*
X191739880Y-85907285D01*
X191777976Y-85831095D01*
X191816071Y-85793000D01*
X191892261Y-85754904D01*
X192387500Y-85754904D02*
X192654166Y-86554904D01*
X192920833Y-85754904D01*
X186977976Y-87904904D02*
X186977976Y-87104904D01*
X187168452Y-87104904D01*
X187282738Y-87143000D01*
X187358928Y-87219190D01*
X187397023Y-87295380D01*
X187435119Y-87447761D01*
X187435119Y-87562047D01*
X187397023Y-87714428D01*
X187358928Y-87790619D01*
X187282738Y-87866809D01*
X187168452Y-87904904D01*
X186977976Y-87904904D01*
X188235119Y-87828714D02*
X188197023Y-87866809D01*
X188082738Y-87904904D01*
X188006547Y-87904904D01*
X187892261Y-87866809D01*
X187816071Y-87790619D01*
X187777976Y-87714428D01*
X187739880Y-87562047D01*
X187739880Y-87447761D01*
X187777976Y-87295380D01*
X187816071Y-87219190D01*
X187892261Y-87143000D01*
X188006547Y-87104904D01*
X188082738Y-87104904D01*
X188197023Y-87143000D01*
X188235119Y-87181095D01*
X189149404Y-87066809D02*
X188463690Y-88095380D01*
X189835119Y-87143000D02*
X189758928Y-87104904D01*
X189644642Y-87104904D01*
X189530357Y-87143000D01*
X189454166Y-87219190D01*
X189416071Y-87295380D01*
X189377976Y-87447761D01*
X189377976Y-87562047D01*
X189416071Y-87714428D01*
X189454166Y-87790619D01*
X189530357Y-87866809D01*
X189644642Y-87904904D01*
X189720833Y-87904904D01*
X189835119Y-87866809D01*
X189873214Y-87828714D01*
X189873214Y-87562047D01*
X189720833Y-87562047D01*
X190177976Y-87866809D02*
X190292261Y-87904904D01*
X190482738Y-87904904D01*
X190558928Y-87866809D01*
X190597023Y-87828714D01*
X190635119Y-87752523D01*
X190635119Y-87676333D01*
X190597023Y-87600142D01*
X190558928Y-87562047D01*
X190482738Y-87523952D01*
X190330357Y-87485857D01*
X190254166Y-87447761D01*
X190216071Y-87409666D01*
X190177976Y-87333476D01*
X190177976Y-87257285D01*
X190216071Y-87181095D01*
X190254166Y-87143000D01*
X190330357Y-87104904D01*
X190520833Y-87104904D01*
X190635119Y-87143000D01*
X187270023Y-66361904D02*
X186812880Y-66361904D01*
X187041452Y-66361904D02*
X187041452Y-65561904D01*
X186965261Y-65676190D01*
X186889071Y-65752380D01*
X186812880Y-65790476D01*
X187765261Y-65561904D02*
X187841452Y-65561904D01*
X187917642Y-65600000D01*
X187955738Y-65638095D01*
X187993833Y-65714285D01*
X188031928Y-65866666D01*
X188031928Y-66057142D01*
X187993833Y-66209523D01*
X187955738Y-66285714D01*
X187917642Y-66323809D01*
X187841452Y-66361904D01*
X187765261Y-66361904D01*
X187689071Y-66323809D01*
X187650976Y-66285714D01*
X187612880Y-66209523D01*
X187574785Y-66057142D01*
X187574785Y-65866666D01*
X187612880Y-65714285D01*
X187650976Y-65638095D01*
X187689071Y-65600000D01*
X187765261Y-65561904D01*
X188336690Y-66133333D02*
X188717642Y-66133333D01*
X188260500Y-66361904D02*
X188527166Y-65561904D01*
X188793833Y-66361904D01*
X189555738Y-65980952D02*
X189517642Y-65942857D01*
X189441452Y-65904761D01*
X189365261Y-65904761D01*
X189289071Y-65942857D01*
X189250976Y-65980952D01*
X189212880Y-66057142D01*
X189212880Y-66133333D01*
X189250976Y-66209523D01*
X189289071Y-66247619D01*
X189365261Y-66285714D01*
X189441452Y-66285714D01*
X189517642Y-66247619D01*
X189555738Y-66209523D01*
X189555738Y-65904761D02*
X189555738Y-66209523D01*
X189593833Y-66247619D01*
X189631928Y-66247619D01*
X189708119Y-66209523D01*
X189746214Y-66133333D01*
X189746214Y-65942857D01*
X189670023Y-65828571D01*
X189555738Y-65752380D01*
X189403357Y-65714285D01*
X189250976Y-65752380D01*
X189136690Y-65828571D01*
X189060500Y-65942857D01*
X189022404Y-66095238D01*
X189060500Y-66247619D01*
X189136690Y-66361904D01*
X189250976Y-66438095D01*
X189403357Y-66476190D01*
X189555738Y-66438095D01*
X189670023Y-66361904D01*
X190050976Y-65638095D02*
X190089071Y-65600000D01*
X190165261Y-65561904D01*
X190355738Y-65561904D01*
X190431928Y-65600000D01*
X190470023Y-65638095D01*
X190508119Y-65714285D01*
X190508119Y-65790476D01*
X190470023Y-65904761D01*
X190012880Y-66361904D01*
X190508119Y-66361904D01*
X190774785Y-65561904D02*
X191270023Y-65561904D01*
X191003357Y-65866666D01*
X191117642Y-65866666D01*
X191193833Y-65904761D01*
X191231928Y-65942857D01*
X191270023Y-66019047D01*
X191270023Y-66209523D01*
X191231928Y-66285714D01*
X191193833Y-66323809D01*
X191117642Y-66361904D01*
X190889071Y-66361904D01*
X190812880Y-66323809D01*
X190774785Y-66285714D01*
X191765261Y-65561904D02*
X191841452Y-65561904D01*
X191917642Y-65600000D01*
X191955738Y-65638095D01*
X191993833Y-65714285D01*
X192031928Y-65866666D01*
X192031928Y-66057142D01*
X191993833Y-66209523D01*
X191955738Y-66285714D01*
X191917642Y-66323809D01*
X191841452Y-66361904D01*
X191765261Y-66361904D01*
X191689071Y-66323809D01*
X191650976Y-66285714D01*
X191612880Y-66209523D01*
X191574785Y-66057142D01*
X191574785Y-65866666D01*
X191612880Y-65714285D01*
X191650976Y-65638095D01*
X191689071Y-65600000D01*
X191765261Y-65561904D01*
X192260500Y-65561904D02*
X192527166Y-66361904D01*
X192793833Y-65561904D01*
X186774785Y-66911904D02*
X186965261Y-67711904D01*
X187117642Y-67140476D01*
X187270023Y-67711904D01*
X187460500Y-66911904D01*
X187727166Y-67673809D02*
X187841452Y-67711904D01*
X188031928Y-67711904D01*
X188108119Y-67673809D01*
X188146214Y-67635714D01*
X188184309Y-67559523D01*
X188184309Y-67483333D01*
X188146214Y-67407142D01*
X188108119Y-67369047D01*
X188031928Y-67330952D01*
X187879547Y-67292857D01*
X187803357Y-67254761D01*
X187765261Y-67216666D01*
X187727166Y-67140476D01*
X187727166Y-67064285D01*
X187765261Y-66988095D01*
X187803357Y-66950000D01*
X187879547Y-66911904D01*
X188070023Y-66911904D01*
X188184309Y-66950000D01*
X189098595Y-66873809D02*
X188412880Y-67902380D01*
X189327166Y-67483333D02*
X189708119Y-67483333D01*
X189250976Y-67711904D02*
X189517642Y-66911904D01*
X189784309Y-67711904D01*
X190508119Y-67635714D02*
X190470023Y-67673809D01*
X190355738Y-67711904D01*
X190279547Y-67711904D01*
X190165261Y-67673809D01*
X190089071Y-67597619D01*
X190050976Y-67521428D01*
X190012880Y-67369047D01*
X190012880Y-67254761D01*
X190050976Y-67102380D01*
X190089071Y-67026190D01*
X190165261Y-66950000D01*
X190279547Y-66911904D01*
X190355738Y-66911904D01*
X190470023Y-66950000D01*
X190508119Y-66988095D01*
X191879547Y-66950000D02*
X191803357Y-66911904D01*
X191689071Y-66911904D01*
X191574785Y-66950000D01*
X191498595Y-67026190D01*
X191460500Y-67102380D01*
X191422404Y-67254761D01*
X191422404Y-67369047D01*
X191460500Y-67521428D01*
X191498595Y-67597619D01*
X191574785Y-67673809D01*
X191689071Y-67711904D01*
X191765261Y-67711904D01*
X191879547Y-67673809D01*
X191917642Y-67635714D01*
X191917642Y-67369047D01*
X191765261Y-67369047D01*
X192222404Y-67673809D02*
X192336690Y-67711904D01*
X192527166Y-67711904D01*
X192603357Y-67673809D01*
X192641452Y-67635714D01*
X192679547Y-67559523D01*
X192679547Y-67483333D01*
X192641452Y-67407142D01*
X192603357Y-67369047D01*
X192527166Y-67330952D01*
X192374785Y-67292857D01*
X192298595Y-67254761D01*
X192260500Y-67216666D01*
X192222404Y-67140476D01*
X192222404Y-67064285D01*
X192260500Y-66988095D01*
X192298595Y-66950000D01*
X192374785Y-66911904D01*
X192565261Y-66911904D01*
X192679547Y-66950000D01*
X193593833Y-66873809D02*
X192908119Y-67902380D01*
X193860500Y-67711904D02*
X193860500Y-66911904D01*
X194050976Y-66911904D01*
X194165261Y-66950000D01*
X194241452Y-67026190D01*
X194279547Y-67102380D01*
X194317642Y-67254761D01*
X194317642Y-67369047D01*
X194279547Y-67521428D01*
X194241452Y-67597619D01*
X194165261Y-67673809D01*
X194050976Y-67711904D01*
X193860500Y-67711904D01*
X195117642Y-67635714D02*
X195079547Y-67673809D01*
X194965261Y-67711904D01*
X194889071Y-67711904D01*
X194774785Y-67673809D01*
X194698595Y-67597619D01*
X194660500Y-67521428D01*
X194622404Y-67369047D01*
X194622404Y-67254761D01*
X194660500Y-67102380D01*
X194698595Y-67026190D01*
X194774785Y-66950000D01*
X194889071Y-66911904D01*
X194965261Y-66911904D01*
X195079547Y-66950000D01*
X195117642Y-66988095D01*
X120302976Y-60698619D02*
X120350595Y-60651000D01*
X120445833Y-60603380D01*
X120683928Y-60603380D01*
X120779166Y-60651000D01*
X120826785Y-60698619D01*
X120874404Y-60793857D01*
X120874404Y-60889095D01*
X120826785Y-61031952D01*
X120255357Y-61603380D01*
X120874404Y-61603380D01*
X121493452Y-60603380D02*
X121588690Y-60603380D01*
X121683928Y-60651000D01*
X121731547Y-60698619D01*
X121779166Y-60793857D01*
X121826785Y-60984333D01*
X121826785Y-61222428D01*
X121779166Y-61412904D01*
X121731547Y-61508142D01*
X121683928Y-61555761D01*
X121588690Y-61603380D01*
X121493452Y-61603380D01*
X121398214Y-61555761D01*
X121350595Y-61508142D01*
X121302976Y-61412904D01*
X121255357Y-61222428D01*
X121255357Y-60984333D01*
X121302976Y-60793857D01*
X121350595Y-60698619D01*
X121398214Y-60651000D01*
X121493452Y-60603380D01*
X122207738Y-60698619D02*
X122255357Y-60651000D01*
X122350595Y-60603380D01*
X122588690Y-60603380D01*
X122683928Y-60651000D01*
X122731547Y-60698619D01*
X122779166Y-60793857D01*
X122779166Y-60889095D01*
X122731547Y-61031952D01*
X122160119Y-61603380D01*
X122779166Y-61603380D01*
X123398214Y-60603380D02*
X123493452Y-60603380D01*
X123588690Y-60651000D01*
X123636309Y-60698619D01*
X123683928Y-60793857D01*
X123731547Y-60984333D01*
X123731547Y-61222428D01*
X123683928Y-61412904D01*
X123636309Y-61508142D01*
X123588690Y-61555761D01*
X123493452Y-61603380D01*
X123398214Y-61603380D01*
X123302976Y-61555761D01*
X123255357Y-61508142D01*
X123207738Y-61412904D01*
X123160119Y-61222428D01*
X123160119Y-60984333D01*
X123207738Y-60793857D01*
X123255357Y-60698619D01*
X123302976Y-60651000D01*
X123398214Y-60603380D01*
X124064880Y-60603380D02*
X124302976Y-61603380D01*
X124493452Y-60889095D01*
X124683928Y-61603380D01*
X124922023Y-60603380D01*
X125493452Y-60603380D02*
X125588690Y-60603380D01*
X125683928Y-60651000D01*
X125731547Y-60698619D01*
X125779166Y-60793857D01*
X125826785Y-60984333D01*
X125826785Y-61222428D01*
X125779166Y-61412904D01*
X125731547Y-61508142D01*
X125683928Y-61555761D01*
X125588690Y-61603380D01*
X125493452Y-61603380D01*
X125398214Y-61555761D01*
X125350595Y-61508142D01*
X125302976Y-61412904D01*
X125255357Y-61222428D01*
X125255357Y-60984333D01*
X125302976Y-60793857D01*
X125350595Y-60698619D01*
X125398214Y-60651000D01*
X125493452Y-60603380D01*
X126731547Y-60603380D02*
X126255357Y-60603380D01*
X126207738Y-61079571D01*
X126255357Y-61031952D01*
X126350595Y-60984333D01*
X126588690Y-60984333D01*
X126683928Y-61031952D01*
X126731547Y-61079571D01*
X126779166Y-61174809D01*
X126779166Y-61412904D01*
X126731547Y-61508142D01*
X126683928Y-61555761D01*
X126588690Y-61603380D01*
X126350595Y-61603380D01*
X126255357Y-61555761D01*
X126207738Y-61508142D01*
X120302976Y-62967666D02*
X120779166Y-62967666D01*
X120207738Y-63253380D02*
X120541071Y-62253380D01*
X120874404Y-63253380D01*
X121541071Y-62729571D02*
X121683928Y-62777190D01*
X121731547Y-62824809D01*
X121779166Y-62920047D01*
X121779166Y-63062904D01*
X121731547Y-63158142D01*
X121683928Y-63205761D01*
X121588690Y-63253380D01*
X121207738Y-63253380D01*
X121207738Y-62253380D01*
X121541071Y-62253380D01*
X121636309Y-62301000D01*
X121683928Y-62348619D01*
X121731547Y-62443857D01*
X121731547Y-62539095D01*
X121683928Y-62634333D01*
X121636309Y-62681952D01*
X121541071Y-62729571D01*
X121207738Y-62729571D01*
X122779166Y-63158142D02*
X122731547Y-63205761D01*
X122588690Y-63253380D01*
X122493452Y-63253380D01*
X122350595Y-63205761D01*
X122255357Y-63110523D01*
X122207738Y-63015285D01*
X122160119Y-62824809D01*
X122160119Y-62681952D01*
X122207738Y-62491476D01*
X122255357Y-62396238D01*
X122350595Y-62301000D01*
X122493452Y-62253380D01*
X122588690Y-62253380D01*
X122731547Y-62301000D01*
X122779166Y-62348619D01*
X97442976Y-61555761D02*
X97538214Y-61603380D01*
X97728690Y-61603380D01*
X97823928Y-61555761D01*
X97871547Y-61460523D01*
X97871547Y-61412904D01*
X97823928Y-61317666D01*
X97728690Y-61270047D01*
X97585833Y-61270047D01*
X97490595Y-61222428D01*
X97442976Y-61127190D01*
X97442976Y-61079571D01*
X97490595Y-60984333D01*
X97585833Y-60936714D01*
X97728690Y-60936714D01*
X97823928Y-60984333D01*
X98442976Y-61603380D02*
X98347738Y-61555761D01*
X98300119Y-61508142D01*
X98252500Y-61412904D01*
X98252500Y-61127190D01*
X98300119Y-61031952D01*
X98347738Y-60984333D01*
X98442976Y-60936714D01*
X98585833Y-60936714D01*
X98681071Y-60984333D01*
X98728690Y-61031952D01*
X98776309Y-61127190D01*
X98776309Y-61412904D01*
X98728690Y-61508142D01*
X98681071Y-61555761D01*
X98585833Y-61603380D01*
X98442976Y-61603380D01*
X99204880Y-60936714D02*
X99204880Y-61603380D01*
X99204880Y-61031952D02*
X99252500Y-60984333D01*
X99347738Y-60936714D01*
X99490595Y-60936714D01*
X99585833Y-60984333D01*
X99633452Y-61079571D01*
X99633452Y-61603380D01*
X100109642Y-61603380D02*
X100109642Y-60603380D01*
X100109642Y-60984333D02*
X100204880Y-60936714D01*
X100395357Y-60936714D01*
X100490595Y-60984333D01*
X100538214Y-61031952D01*
X100585833Y-61127190D01*
X100585833Y-61412904D01*
X100538214Y-61508142D01*
X100490595Y-61555761D01*
X100395357Y-61603380D01*
X100204880Y-61603380D01*
X100109642Y-61555761D01*
X101395357Y-61555761D02*
X101300119Y-61603380D01*
X101109642Y-61603380D01*
X101014404Y-61555761D01*
X100966785Y-61460523D01*
X100966785Y-61079571D01*
X101014404Y-60984333D01*
X101109642Y-60936714D01*
X101300119Y-60936714D01*
X101395357Y-60984333D01*
X101442976Y-61079571D01*
X101442976Y-61174809D01*
X100966785Y-61270047D01*
X101823928Y-61555761D02*
X101919166Y-61603380D01*
X102109642Y-61603380D01*
X102204880Y-61555761D01*
X102252500Y-61460523D01*
X102252500Y-61412904D01*
X102204880Y-61317666D01*
X102109642Y-61270047D01*
X101966785Y-61270047D01*
X101871547Y-61222428D01*
X101823928Y-61127190D01*
X101823928Y-61079571D01*
X101871547Y-60984333D01*
X101966785Y-60936714D01*
X102109642Y-60936714D01*
X102204880Y-60984333D01*
X102681071Y-61603380D02*
X102681071Y-60936714D01*
X102681071Y-60603380D02*
X102633452Y-60651000D01*
X102681071Y-60698619D01*
X102728690Y-60651000D01*
X102681071Y-60603380D01*
X102681071Y-60698619D01*
X103538214Y-61555761D02*
X103442976Y-61603380D01*
X103252500Y-61603380D01*
X103157261Y-61555761D01*
X103109642Y-61460523D01*
X103109642Y-61079571D01*
X103157261Y-60984333D01*
X103252500Y-60936714D01*
X103442976Y-60936714D01*
X103538214Y-60984333D01*
X103585833Y-61079571D01*
X103585833Y-61174809D01*
X103109642Y-61270047D01*
X104014404Y-61508142D02*
X104062023Y-61555761D01*
X104014404Y-61603380D01*
X103966785Y-61555761D01*
X104014404Y-61508142D01*
X104014404Y-61603380D01*
X104919166Y-61555761D02*
X104823928Y-61603380D01*
X104633452Y-61603380D01*
X104538214Y-61555761D01*
X104490595Y-61508142D01*
X104442976Y-61412904D01*
X104442976Y-61127190D01*
X104490595Y-61031952D01*
X104538214Y-60984333D01*
X104633452Y-60936714D01*
X104823928Y-60936714D01*
X104919166Y-60984333D01*
X105490595Y-61603380D02*
X105395357Y-61555761D01*
X105347738Y-61508142D01*
X105300119Y-61412904D01*
X105300119Y-61127190D01*
X105347738Y-61031952D01*
X105395357Y-60984333D01*
X105490595Y-60936714D01*
X105633452Y-60936714D01*
X105728690Y-60984333D01*
X105776309Y-61031952D01*
X105823928Y-61127190D01*
X105823928Y-61412904D01*
X105776309Y-61508142D01*
X105728690Y-61555761D01*
X105633452Y-61603380D01*
X105490595Y-61603380D01*
X106252500Y-61508142D02*
X106300119Y-61555761D01*
X106252500Y-61603380D01*
X106204880Y-61555761D01*
X106252500Y-61508142D01*
X106252500Y-61603380D01*
X106633452Y-60936714D02*
X107157261Y-60936714D01*
X106633452Y-61603380D01*
X107157261Y-61603380D01*
X107966785Y-61603380D02*
X107966785Y-61079571D01*
X107919166Y-60984333D01*
X107823928Y-60936714D01*
X107633452Y-60936714D01*
X107538214Y-60984333D01*
X107966785Y-61555761D02*
X107871547Y-61603380D01*
X107633452Y-61603380D01*
X107538214Y-61555761D01*
X107490595Y-61460523D01*
X107490595Y-61365285D01*
X107538214Y-61270047D01*
X107633452Y-61222428D01*
X107871547Y-61222428D01*
X107966785Y-61174809D01*
X97395357Y-62586714D02*
X97585833Y-63253380D01*
X97776309Y-62777190D01*
X97966785Y-63253380D01*
X98157261Y-62586714D01*
X98919166Y-63205761D02*
X98823928Y-63253380D01*
X98633452Y-63253380D01*
X98538214Y-63205761D01*
X98490595Y-63110523D01*
X98490595Y-62729571D01*
X98538214Y-62634333D01*
X98633452Y-62586714D01*
X98823928Y-62586714D01*
X98919166Y-62634333D01*
X98966785Y-62729571D01*
X98966785Y-62824809D01*
X98490595Y-62920047D01*
X99776309Y-63205761D02*
X99681071Y-63253380D01*
X99490595Y-63253380D01*
X99395357Y-63205761D01*
X99347738Y-63110523D01*
X99347738Y-62729571D01*
X99395357Y-62634333D01*
X99490595Y-62586714D01*
X99681071Y-62586714D01*
X99776309Y-62634333D01*
X99823928Y-62729571D01*
X99823928Y-62824809D01*
X99347738Y-62920047D01*
X100252500Y-63253380D02*
X100252500Y-62586714D01*
X100252500Y-62777190D02*
X100300119Y-62681952D01*
X100347738Y-62634333D01*
X100442976Y-62586714D01*
X100538214Y-62586714D01*
X101300119Y-62586714D02*
X101300119Y-63396238D01*
X101252500Y-63491476D01*
X101204880Y-63539095D01*
X101109642Y-63586714D01*
X100966785Y-63586714D01*
X100871547Y-63539095D01*
X101300119Y-63205761D02*
X101204880Y-63253380D01*
X101014404Y-63253380D01*
X100919166Y-63205761D01*
X100871547Y-63158142D01*
X100823928Y-63062904D01*
X100823928Y-62777190D01*
X100871547Y-62681952D01*
X100919166Y-62634333D01*
X101014404Y-62586714D01*
X101204880Y-62586714D01*
X101300119Y-62634333D01*
X102204880Y-63253380D02*
X102204880Y-62729571D01*
X102157261Y-62634333D01*
X102062023Y-62586714D01*
X101871547Y-62586714D01*
X101776309Y-62634333D01*
X102204880Y-63205761D02*
X102109642Y-63253380D01*
X101871547Y-63253380D01*
X101776309Y-63205761D01*
X101728690Y-63110523D01*
X101728690Y-63015285D01*
X101776309Y-62920047D01*
X101871547Y-62872428D01*
X102109642Y-62872428D01*
X102204880Y-62824809D01*
X102585833Y-62586714D02*
X102776309Y-63253380D01*
X102966785Y-62777190D01*
X103157261Y-63253380D01*
X103347738Y-62586714D01*
X104109642Y-63205761D02*
X104014404Y-63253380D01*
X103823928Y-63253380D01*
X103728690Y-63205761D01*
X103681071Y-63110523D01*
X103681071Y-62729571D01*
X103728690Y-62634333D01*
X103823928Y-62586714D01*
X104014404Y-62586714D01*
X104109642Y-62634333D01*
X104157261Y-62729571D01*
X104157261Y-62824809D01*
X103681071Y-62920047D01*
X106062023Y-62205761D02*
X105204880Y-63491476D01*
X107062023Y-62586714D02*
X107300119Y-63253380D01*
X107538214Y-62586714D01*
X108300119Y-63205761D02*
X108204880Y-63253380D01*
X108014404Y-63253380D01*
X107919166Y-63205761D01*
X107871547Y-63110523D01*
X107871547Y-62729571D01*
X107919166Y-62634333D01*
X108014404Y-62586714D01*
X108204880Y-62586714D01*
X108300119Y-62634333D01*
X108347738Y-62729571D01*
X108347738Y-62824809D01*
X107871547Y-62920047D01*
X108776309Y-63253380D02*
X108776309Y-62586714D01*
X108776309Y-62777190D02*
X108823928Y-62681952D01*
X108871547Y-62634333D01*
X108966785Y-62586714D01*
X109062023Y-62586714D01*
X109347738Y-63205761D02*
X109442976Y-63253380D01*
X109633452Y-63253380D01*
X109728690Y-63205761D01*
X109776309Y-63110523D01*
X109776309Y-63062904D01*
X109728690Y-62967666D01*
X109633452Y-62920047D01*
X109490595Y-62920047D01*
X109395357Y-62872428D01*
X109347738Y-62777190D01*
X109347738Y-62729571D01*
X109395357Y-62634333D01*
X109490595Y-62586714D01*
X109633452Y-62586714D01*
X109728690Y-62634333D01*
X110204880Y-63253380D02*
X110204880Y-62586714D01*
X110204880Y-62253380D02*
X110157261Y-62301000D01*
X110204880Y-62348619D01*
X110252500Y-62301000D01*
X110204880Y-62253380D01*
X110204880Y-62348619D01*
X110823928Y-63253380D02*
X110728690Y-63205761D01*
X110681071Y-63158142D01*
X110633452Y-63062904D01*
X110633452Y-62777190D01*
X110681071Y-62681952D01*
X110728690Y-62634333D01*
X110823928Y-62586714D01*
X110966785Y-62586714D01*
X111062023Y-62634333D01*
X111109642Y-62681952D01*
X111157261Y-62777190D01*
X111157261Y-63062904D01*
X111109642Y-63158142D01*
X111062023Y-63205761D01*
X110966785Y-63253380D01*
X110823928Y-63253380D01*
X111585833Y-62586714D02*
X111585833Y-63253380D01*
X111585833Y-62681952D02*
X111633452Y-62634333D01*
X111728690Y-62586714D01*
X111871547Y-62586714D01*
X111966785Y-62634333D01*
X112014404Y-62729571D01*
X112014404Y-63253380D01*
X112490595Y-63158142D02*
X112538214Y-63205761D01*
X112490595Y-63253380D01*
X112442976Y-63205761D01*
X112490595Y-63158142D01*
X112490595Y-63253380D01*
X112490595Y-62634333D02*
X112538214Y-62681952D01*
X112490595Y-62729571D01*
X112442976Y-62681952D01*
X112490595Y-62634333D01*
X112490595Y-62729571D01*
X113919166Y-62253380D02*
X114014404Y-62253380D01*
X114109642Y-62301000D01*
X114157261Y-62348619D01*
X114204880Y-62443857D01*
X114252500Y-62634333D01*
X114252500Y-62872428D01*
X114204880Y-63062904D01*
X114157261Y-63158142D01*
X114109642Y-63205761D01*
X114014404Y-63253380D01*
X113919166Y-63253380D01*
X113823928Y-63205761D01*
X113776309Y-63158142D01*
X113728690Y-63062904D01*
X113681071Y-62872428D01*
X113681071Y-62634333D01*
X113728690Y-62443857D01*
X113776309Y-62348619D01*
X113823928Y-62301000D01*
X113919166Y-62253380D01*
X114681071Y-63158142D02*
X114728690Y-63205761D01*
X114681071Y-63253380D01*
X114633452Y-63205761D01*
X114681071Y-63158142D01*
X114681071Y-63253380D01*
X115633452Y-62253380D02*
X115157261Y-62253380D01*
X115109642Y-62729571D01*
X115157261Y-62681952D01*
X115252500Y-62634333D01*
X115490595Y-62634333D01*
X115585833Y-62681952D01*
X115633452Y-62729571D01*
X115681071Y-62824809D01*
X115681071Y-63062904D01*
X115633452Y-63158142D01*
X115585833Y-63205761D01*
X115490595Y-63253380D01*
X115252500Y-63253380D01*
X115157261Y-63205761D01*
X115109642Y-63158142D01*
X183086952Y-105624380D02*
X183086952Y-106338666D01*
X183039333Y-106481523D01*
X182944095Y-106576761D01*
X182801238Y-106624380D01*
X182706000Y-106624380D01*
X184039333Y-106624380D02*
X183563142Y-106624380D01*
X183563142Y-105624380D01*
X184944095Y-106529142D02*
X184896476Y-106576761D01*
X184753619Y-106624380D01*
X184658380Y-106624380D01*
X184515523Y-106576761D01*
X184420285Y-106481523D01*
X184372666Y-106386285D01*
X184325047Y-106195809D01*
X184325047Y-106052952D01*
X184372666Y-105862476D01*
X184420285Y-105767238D01*
X184515523Y-105672000D01*
X184658380Y-105624380D01*
X184753619Y-105624380D01*
X184896476Y-105672000D01*
X184944095Y-105719619D01*
X185658380Y-105624380D02*
X185658380Y-106338666D01*
X185610761Y-106481523D01*
X185515523Y-106576761D01*
X185372666Y-106624380D01*
X185277428Y-106624380D01*
X186610761Y-106624380D02*
X186134571Y-106624380D01*
X186134571Y-105624380D01*
X187515523Y-106529142D02*
X187467904Y-106576761D01*
X187325047Y-106624380D01*
X187229809Y-106624380D01*
X187086952Y-106576761D01*
X186991714Y-106481523D01*
X186944095Y-106386285D01*
X186896476Y-106195809D01*
X186896476Y-106052952D01*
X186944095Y-105862476D01*
X186991714Y-105767238D01*
X187086952Y-105672000D01*
X187229809Y-105624380D01*
X187325047Y-105624380D01*
X187467904Y-105672000D01*
X187515523Y-105719619D01*
X188229809Y-105624380D02*
X188229809Y-106338666D01*
X188182190Y-106481523D01*
X188086952Y-106576761D01*
X187944095Y-106624380D01*
X187848857Y-106624380D01*
X189182190Y-106624380D02*
X188706000Y-106624380D01*
X188706000Y-105624380D01*
X190086952Y-106529142D02*
X190039333Y-106576761D01*
X189896476Y-106624380D01*
X189801238Y-106624380D01*
X189658380Y-106576761D01*
X189563142Y-106481523D01*
X189515523Y-106386285D01*
X189467904Y-106195809D01*
X189467904Y-106052952D01*
X189515523Y-105862476D01*
X189563142Y-105767238D01*
X189658380Y-105672000D01*
X189801238Y-105624380D01*
X189896476Y-105624380D01*
X190039333Y-105672000D01*
X190086952Y-105719619D01*
X190801238Y-105624380D02*
X190801238Y-106338666D01*
X190753619Y-106481523D01*
X190658380Y-106576761D01*
X190515523Y-106624380D01*
X190420285Y-106624380D01*
X191753619Y-106624380D02*
X191277428Y-106624380D01*
X191277428Y-105624380D01*
X192658380Y-106529142D02*
X192610761Y-106576761D01*
X192467904Y-106624380D01*
X192372666Y-106624380D01*
X192229809Y-106576761D01*
X192134571Y-106481523D01*
X192086952Y-106386285D01*
X192039333Y-106195809D01*
X192039333Y-106052952D01*
X192086952Y-105862476D01*
X192134571Y-105767238D01*
X192229809Y-105672000D01*
X192372666Y-105624380D01*
X192467904Y-105624380D01*
X192610761Y-105672000D01*
X192658380Y-105719619D01*
D11*
G36*
X94083910Y-59980348D02*
G01*
X94162454Y-59980778D01*
X94219298Y-59981942D01*
X94258105Y-59984207D01*
X94282538Y-59987940D01*
X94296262Y-59993506D01*
X94302940Y-60001273D01*
X94306236Y-60011605D01*
X94306556Y-60012943D01*
X94311562Y-60037079D01*
X94320829Y-60084701D01*
X94333392Y-60150741D01*
X94348287Y-60230128D01*
X94364551Y-60317796D01*
X94365119Y-60320875D01*
X94381410Y-60406789D01*
X94396652Y-60482696D01*
X94409861Y-60544045D01*
X94420054Y-60586282D01*
X94426248Y-60604855D01*
X94426543Y-60605184D01*
X94444788Y-60614253D01*
X94482405Y-60629367D01*
X94531271Y-60647262D01*
X94531543Y-60647358D01*
X94593093Y-60670493D01*
X94665657Y-60699965D01*
X94734057Y-60729597D01*
X94737294Y-60731062D01*
X94848702Y-60781626D01*
X95095399Y-60613160D01*
X95171077Y-60561803D01*
X95239631Y-60515889D01*
X95297088Y-60478030D01*
X95339476Y-60450837D01*
X95362825Y-60436921D01*
X95365042Y-60435889D01*
X95382010Y-60440484D01*
X95413701Y-60462655D01*
X95461352Y-60503447D01*
X95526198Y-60563905D01*
X95592397Y-60628227D01*
X95656214Y-60691612D01*
X95713329Y-60749451D01*
X95760305Y-60798175D01*
X95793703Y-60834210D01*
X95810085Y-60853984D01*
X95810694Y-60855002D01*
X95812505Y-60868572D01*
X95805683Y-60890733D01*
X95788540Y-60924478D01*
X95759393Y-60972800D01*
X95716555Y-61038692D01*
X95659448Y-61123517D01*
X95608766Y-61198177D01*
X95563461Y-61265140D01*
X95526150Y-61320516D01*
X95499452Y-61360420D01*
X95485985Y-61380962D01*
X95485137Y-61382356D01*
X95486781Y-61402038D01*
X95499245Y-61440293D01*
X95520048Y-61489889D01*
X95527462Y-61505728D01*
X95559814Y-61576290D01*
X95594328Y-61656353D01*
X95622365Y-61725629D01*
X95642568Y-61777045D01*
X95658615Y-61816119D01*
X95667888Y-61836541D01*
X95669041Y-61838114D01*
X95686096Y-61840721D01*
X95726298Y-61847863D01*
X95784302Y-61858523D01*
X95854763Y-61871685D01*
X95932335Y-61886333D01*
X96011672Y-61901449D01*
X96087431Y-61916018D01*
X96154264Y-61929022D01*
X96206828Y-61939445D01*
X96239776Y-61946270D01*
X96247857Y-61948199D01*
X96256205Y-61952962D01*
X96262506Y-61963718D01*
X96267045Y-61984098D01*
X96270104Y-62017734D01*
X96271967Y-62068255D01*
X96272918Y-62139292D01*
X96273240Y-62234476D01*
X96273257Y-62273492D01*
X96273257Y-62590799D01*
X96197057Y-62605839D01*
X96154663Y-62613995D01*
X96091400Y-62625899D01*
X96014962Y-62640116D01*
X95933043Y-62655210D01*
X95910400Y-62659355D01*
X95834806Y-62674053D01*
X95768953Y-62688505D01*
X95718366Y-62701375D01*
X95688574Y-62711322D01*
X95683612Y-62714287D01*
X95671426Y-62735283D01*
X95653953Y-62775967D01*
X95634577Y-62828322D01*
X95630734Y-62839600D01*
X95605339Y-62909523D01*
X95573817Y-62988418D01*
X95542969Y-63059266D01*
X95542817Y-63059595D01*
X95491447Y-63170733D01*
X95660399Y-63419253D01*
X95829352Y-63667772D01*
X95612429Y-63885058D01*
X95546819Y-63949726D01*
X95486979Y-64006733D01*
X95436267Y-64053033D01*
X95398046Y-64085584D01*
X95375675Y-64101343D01*
X95372466Y-64102343D01*
X95353626Y-64094469D01*
X95315180Y-64072578D01*
X95261330Y-64039267D01*
X95196276Y-63997131D01*
X95125940Y-63949943D01*
X95054555Y-63901810D01*
X94990908Y-63859928D01*
X94939041Y-63826871D01*
X94902995Y-63805218D01*
X94886867Y-63797543D01*
X94867189Y-63804037D01*
X94829875Y-63821150D01*
X94782621Y-63845326D01*
X94777612Y-63848013D01*
X94713977Y-63879927D01*
X94670341Y-63895579D01*
X94643202Y-63895745D01*
X94629057Y-63881204D01*
X94628975Y-63881000D01*
X94621905Y-63863779D01*
X94605042Y-63822899D01*
X94579695Y-63761525D01*
X94547171Y-63682819D01*
X94508778Y-63589947D01*
X94465822Y-63486072D01*
X94424222Y-63385502D01*
X94378504Y-63274516D01*
X94336526Y-63171703D01*
X94299548Y-63080215D01*
X94268827Y-63003201D01*
X94245622Y-62943815D01*
X94231190Y-62905209D01*
X94226743Y-62890800D01*
X94237896Y-62874272D01*
X94267069Y-62847930D01*
X94305971Y-62818887D01*
X94416757Y-62727039D01*
X94503351Y-62621759D01*
X94564716Y-62505266D01*
X94599815Y-62379776D01*
X94607608Y-62247507D01*
X94601943Y-62186457D01*
X94571078Y-62059795D01*
X94517920Y-61947941D01*
X94445767Y-61852001D01*
X94357917Y-61773076D01*
X94257665Y-61712270D01*
X94148310Y-61670687D01*
X94033147Y-61649428D01*
X93915475Y-61649599D01*
X93798590Y-61672301D01*
X93685789Y-61718638D01*
X93580369Y-61789713D01*
X93536368Y-61829911D01*
X93451979Y-61933129D01*
X93393222Y-62045925D01*
X93359704Y-62165010D01*
X93351035Y-62287095D01*
X93366823Y-62408893D01*
X93406678Y-62527116D01*
X93470207Y-62638475D01*
X93557021Y-62739684D01*
X93654029Y-62818887D01*
X93694437Y-62849162D01*
X93722982Y-62875219D01*
X93733257Y-62890825D01*
X93727877Y-62907843D01*
X93712575Y-62948500D01*
X93688612Y-63009642D01*
X93657244Y-63088119D01*
X93619732Y-63180780D01*
X93577333Y-63284472D01*
X93535663Y-63385526D01*
X93489690Y-63496607D01*
X93447107Y-63599541D01*
X93409221Y-63691165D01*
X93377340Y-63768316D01*
X93352771Y-63827831D01*
X93336820Y-63866544D01*
X93330910Y-63881000D01*
X93316948Y-63895685D01*
X93289940Y-63895642D01*
X93246413Y-63880099D01*
X93182890Y-63848284D01*
X93182388Y-63848013D01*
X93134560Y-63823323D01*
X93095897Y-63805338D01*
X93074095Y-63797614D01*
X93073133Y-63797543D01*
X93056721Y-63805378D01*
X93020487Y-63827165D01*
X92968474Y-63860328D01*
X92904725Y-63902291D01*
X92834060Y-63949943D01*
X92762116Y-63998191D01*
X92697274Y-64040151D01*
X92643735Y-64073227D01*
X92605697Y-64094821D01*
X92587533Y-64102343D01*
X92570808Y-64092457D01*
X92537180Y-64064826D01*
X92490010Y-64022495D01*
X92432658Y-63968505D01*
X92368484Y-63905899D01*
X92347497Y-63884983D01*
X92130499Y-63667623D01*
X92295668Y-63425220D01*
X92345864Y-63350781D01*
X92389919Y-63283972D01*
X92425362Y-63228665D01*
X92449719Y-63188729D01*
X92460522Y-63168036D01*
X92460838Y-63166563D01*
X92455143Y-63147058D01*
X92439826Y-63107822D01*
X92417537Y-63055430D01*
X92401893Y-63020355D01*
X92372641Y-62953201D01*
X92345094Y-62885358D01*
X92323737Y-62828034D01*
X92317935Y-62810572D01*
X92301452Y-62763938D01*
X92285340Y-62727905D01*
X92276490Y-62714287D01*
X92256960Y-62705952D01*
X92214334Y-62694137D01*
X92154145Y-62680181D01*
X92081922Y-62665422D01*
X92049600Y-62659355D01*
X91967522Y-62644273D01*
X91888795Y-62629669D01*
X91821109Y-62616980D01*
X91772160Y-62607642D01*
X91762943Y-62605839D01*
X91686743Y-62590799D01*
X91686743Y-62273492D01*
X91686914Y-62169154D01*
X91687616Y-62090213D01*
X91689134Y-62033038D01*
X91691749Y-61993999D01*
X91695746Y-61969465D01*
X91701409Y-61955805D01*
X91709020Y-61949389D01*
X91712143Y-61948199D01*
X91730978Y-61943980D01*
X91772588Y-61935562D01*
X91831630Y-61923961D01*
X91902757Y-61910195D01*
X91980625Y-61895280D01*
X92059887Y-61880232D01*
X92135198Y-61866069D01*
X92201213Y-61853806D01*
X92252587Y-61844461D01*
X92283975Y-61839050D01*
X92290959Y-61838114D01*
X92297285Y-61825596D01*
X92311290Y-61792246D01*
X92330355Y-61744377D01*
X92337634Y-61725629D01*
X92366996Y-61653195D01*
X92401571Y-61573170D01*
X92432537Y-61505728D01*
X92455323Y-61454159D01*
X92470482Y-61411785D01*
X92475542Y-61385834D01*
X92474736Y-61382356D01*
X92464041Y-61365936D01*
X92439620Y-61329417D01*
X92404095Y-61276687D01*
X92360087Y-61211635D01*
X92310217Y-61138151D01*
X92300356Y-61123645D01*
X92242492Y-61037704D01*
X92199956Y-60972261D01*
X92171054Y-60924304D01*
X92154090Y-60890820D01*
X92147367Y-60868795D01*
X92149190Y-60855217D01*
X92149236Y-60855131D01*
X92163586Y-60837297D01*
X92195323Y-60802817D01*
X92241010Y-60755268D01*
X92297204Y-60698222D01*
X92360468Y-60635255D01*
X92367602Y-60628227D01*
X92447330Y-60551020D01*
X92508857Y-60494330D01*
X92553421Y-60457110D01*
X92582257Y-60438315D01*
X92594958Y-60435889D01*
X92613494Y-60446471D01*
X92651961Y-60470916D01*
X92706386Y-60506612D01*
X92772798Y-60550947D01*
X92847225Y-60601311D01*
X92864601Y-60613160D01*
X93111297Y-60781626D01*
X93222706Y-60731062D01*
X93290457Y-60701595D01*
X93363183Y-60671959D01*
X93425703Y-60648330D01*
X93428457Y-60647358D01*
X93477360Y-60629457D01*
X93515057Y-60614320D01*
X93533425Y-60605210D01*
X93533456Y-60605184D01*
X93539285Y-60588717D01*
X93549192Y-60548219D01*
X93562195Y-60488242D01*
X93577309Y-60413340D01*
X93593552Y-60328064D01*
X93594881Y-60320875D01*
X93611175Y-60233014D01*
X93626133Y-60153260D01*
X93638791Y-60086681D01*
X93648186Y-60038347D01*
X93653354Y-60013325D01*
X93653444Y-60012943D01*
X93656589Y-60002299D01*
X93662704Y-59994262D01*
X93675453Y-59988467D01*
X93698500Y-59984547D01*
X93735509Y-59982135D01*
X93790144Y-59980865D01*
X93866067Y-59980371D01*
X93966944Y-59980286D01*
X93980000Y-59980286D01*
X94083910Y-59980348D01*
G37*
X94083910Y-59980348D02*
X94162454Y-59980778D01*
X94219298Y-59981942D01*
X94258105Y-59984207D01*
X94282538Y-59987940D01*
X94296262Y-59993506D01*
X94302940Y-60001273D01*
X94306236Y-60011605D01*
X94306556Y-60012943D01*
X94311562Y-60037079D01*
X94320829Y-60084701D01*
X94333392Y-60150741D01*
X94348287Y-60230128D01*
X94364551Y-60317796D01*
X94365119Y-60320875D01*
X94381410Y-60406789D01*
X94396652Y-60482696D01*
X94409861Y-60544045D01*
X94420054Y-60586282D01*
X94426248Y-60604855D01*
X94426543Y-60605184D01*
X94444788Y-60614253D01*
X94482405Y-60629367D01*
X94531271Y-60647262D01*
X94531543Y-60647358D01*
X94593093Y-60670493D01*
X94665657Y-60699965D01*
X94734057Y-60729597D01*
X94737294Y-60731062D01*
X94848702Y-60781626D01*
X95095399Y-60613160D01*
X95171077Y-60561803D01*
X95239631Y-60515889D01*
X95297088Y-60478030D01*
X95339476Y-60450837D01*
X95362825Y-60436921D01*
X95365042Y-60435889D01*
X95382010Y-60440484D01*
X95413701Y-60462655D01*
X95461352Y-60503447D01*
X95526198Y-60563905D01*
X95592397Y-60628227D01*
X95656214Y-60691612D01*
X95713329Y-60749451D01*
X95760305Y-60798175D01*
X95793703Y-60834210D01*
X95810085Y-60853984D01*
X95810694Y-60855002D01*
X95812505Y-60868572D01*
X95805683Y-60890733D01*
X95788540Y-60924478D01*
X95759393Y-60972800D01*
X95716555Y-61038692D01*
X95659448Y-61123517D01*
X95608766Y-61198177D01*
X95563461Y-61265140D01*
X95526150Y-61320516D01*
X95499452Y-61360420D01*
X95485985Y-61380962D01*
X95485137Y-61382356D01*
X95486781Y-61402038D01*
X95499245Y-61440293D01*
X95520048Y-61489889D01*
X95527462Y-61505728D01*
X95559814Y-61576290D01*
X95594328Y-61656353D01*
X95622365Y-61725629D01*
X95642568Y-61777045D01*
X95658615Y-61816119D01*
X95667888Y-61836541D01*
X95669041Y-61838114D01*
X95686096Y-61840721D01*
X95726298Y-61847863D01*
X95784302Y-61858523D01*
X95854763Y-61871685D01*
X95932335Y-61886333D01*
X96011672Y-61901449D01*
X96087431Y-61916018D01*
X96154264Y-61929022D01*
X96206828Y-61939445D01*
X96239776Y-61946270D01*
X96247857Y-61948199D01*
X96256205Y-61952962D01*
X96262506Y-61963718D01*
X96267045Y-61984098D01*
X96270104Y-62017734D01*
X96271967Y-62068255D01*
X96272918Y-62139292D01*
X96273240Y-62234476D01*
X96273257Y-62273492D01*
X96273257Y-62590799D01*
X96197057Y-62605839D01*
X96154663Y-62613995D01*
X96091400Y-62625899D01*
X96014962Y-62640116D01*
X95933043Y-62655210D01*
X95910400Y-62659355D01*
X95834806Y-62674053D01*
X95768953Y-62688505D01*
X95718366Y-62701375D01*
X95688574Y-62711322D01*
X95683612Y-62714287D01*
X95671426Y-62735283D01*
X95653953Y-62775967D01*
X95634577Y-62828322D01*
X95630734Y-62839600D01*
X95605339Y-62909523D01*
X95573817Y-62988418D01*
X95542969Y-63059266D01*
X95542817Y-63059595D01*
X95491447Y-63170733D01*
X95660399Y-63419253D01*
X95829352Y-63667772D01*
X95612429Y-63885058D01*
X95546819Y-63949726D01*
X95486979Y-64006733D01*
X95436267Y-64053033D01*
X95398046Y-64085584D01*
X95375675Y-64101343D01*
X95372466Y-64102343D01*
X95353626Y-64094469D01*
X95315180Y-64072578D01*
X95261330Y-64039267D01*
X95196276Y-63997131D01*
X95125940Y-63949943D01*
X95054555Y-63901810D01*
X94990908Y-63859928D01*
X94939041Y-63826871D01*
X94902995Y-63805218D01*
X94886867Y-63797543D01*
X94867189Y-63804037D01*
X94829875Y-63821150D01*
X94782621Y-63845326D01*
X94777612Y-63848013D01*
X94713977Y-63879927D01*
X94670341Y-63895579D01*
X94643202Y-63895745D01*
X94629057Y-63881204D01*
X94628975Y-63881000D01*
X94621905Y-63863779D01*
X94605042Y-63822899D01*
X94579695Y-63761525D01*
X94547171Y-63682819D01*
X94508778Y-63589947D01*
X94465822Y-63486072D01*
X94424222Y-63385502D01*
X94378504Y-63274516D01*
X94336526Y-63171703D01*
X94299548Y-63080215D01*
X94268827Y-63003201D01*
X94245622Y-62943815D01*
X94231190Y-62905209D01*
X94226743Y-62890800D01*
X94237896Y-62874272D01*
X94267069Y-62847930D01*
X94305971Y-62818887D01*
X94416757Y-62727039D01*
X94503351Y-62621759D01*
X94564716Y-62505266D01*
X94599815Y-62379776D01*
X94607608Y-62247507D01*
X94601943Y-62186457D01*
X94571078Y-62059795D01*
X94517920Y-61947941D01*
X94445767Y-61852001D01*
X94357917Y-61773076D01*
X94257665Y-61712270D01*
X94148310Y-61670687D01*
X94033147Y-61649428D01*
X93915475Y-61649599D01*
X93798590Y-61672301D01*
X93685789Y-61718638D01*
X93580369Y-61789713D01*
X93536368Y-61829911D01*
X93451979Y-61933129D01*
X93393222Y-62045925D01*
X93359704Y-62165010D01*
X93351035Y-62287095D01*
X93366823Y-62408893D01*
X93406678Y-62527116D01*
X93470207Y-62638475D01*
X93557021Y-62739684D01*
X93654029Y-62818887D01*
X93694437Y-62849162D01*
X93722982Y-62875219D01*
X93733257Y-62890825D01*
X93727877Y-62907843D01*
X93712575Y-62948500D01*
X93688612Y-63009642D01*
X93657244Y-63088119D01*
X93619732Y-63180780D01*
X93577333Y-63284472D01*
X93535663Y-63385526D01*
X93489690Y-63496607D01*
X93447107Y-63599541D01*
X93409221Y-63691165D01*
X93377340Y-63768316D01*
X93352771Y-63827831D01*
X93336820Y-63866544D01*
X93330910Y-63881000D01*
X93316948Y-63895685D01*
X93289940Y-63895642D01*
X93246413Y-63880099D01*
X93182890Y-63848284D01*
X93182388Y-63848013D01*
X93134560Y-63823323D01*
X93095897Y-63805338D01*
X93074095Y-63797614D01*
X93073133Y-63797543D01*
X93056721Y-63805378D01*
X93020487Y-63827165D01*
X92968474Y-63860328D01*
X92904725Y-63902291D01*
X92834060Y-63949943D01*
X92762116Y-63998191D01*
X92697274Y-64040151D01*
X92643735Y-64073227D01*
X92605697Y-64094821D01*
X92587533Y-64102343D01*
X92570808Y-64092457D01*
X92537180Y-64064826D01*
X92490010Y-64022495D01*
X92432658Y-63968505D01*
X92368484Y-63905899D01*
X92347497Y-63884983D01*
X92130499Y-63667623D01*
X92295668Y-63425220D01*
X92345864Y-63350781D01*
X92389919Y-63283972D01*
X92425362Y-63228665D01*
X92449719Y-63188729D01*
X92460522Y-63168036D01*
X92460838Y-63166563D01*
X92455143Y-63147058D01*
X92439826Y-63107822D01*
X92417537Y-63055430D01*
X92401893Y-63020355D01*
X92372641Y-62953201D01*
X92345094Y-62885358D01*
X92323737Y-62828034D01*
X92317935Y-62810572D01*
X92301452Y-62763938D01*
X92285340Y-62727905D01*
X92276490Y-62714287D01*
X92256960Y-62705952D01*
X92214334Y-62694137D01*
X92154145Y-62680181D01*
X92081922Y-62665422D01*
X92049600Y-62659355D01*
X91967522Y-62644273D01*
X91888795Y-62629669D01*
X91821109Y-62616980D01*
X91772160Y-62607642D01*
X91762943Y-62605839D01*
X91686743Y-62590799D01*
X91686743Y-62273492D01*
X91686914Y-62169154D01*
X91687616Y-62090213D01*
X91689134Y-62033038D01*
X91691749Y-61993999D01*
X91695746Y-61969465D01*
X91701409Y-61955805D01*
X91709020Y-61949389D01*
X91712143Y-61948199D01*
X91730978Y-61943980D01*
X91772588Y-61935562D01*
X91831630Y-61923961D01*
X91902757Y-61910195D01*
X91980625Y-61895280D01*
X92059887Y-61880232D01*
X92135198Y-61866069D01*
X92201213Y-61853806D01*
X92252587Y-61844461D01*
X92283975Y-61839050D01*
X92290959Y-61838114D01*
X92297285Y-61825596D01*
X92311290Y-61792246D01*
X92330355Y-61744377D01*
X92337634Y-61725629D01*
X92366996Y-61653195D01*
X92401571Y-61573170D01*
X92432537Y-61505728D01*
X92455323Y-61454159D01*
X92470482Y-61411785D01*
X92475542Y-61385834D01*
X92474736Y-61382356D01*
X92464041Y-61365936D01*
X92439620Y-61329417D01*
X92404095Y-61276687D01*
X92360087Y-61211635D01*
X92310217Y-61138151D01*
X92300356Y-61123645D01*
X92242492Y-61037704D01*
X92199956Y-60972261D01*
X92171054Y-60924304D01*
X92154090Y-60890820D01*
X92147367Y-60868795D01*
X92149190Y-60855217D01*
X92149236Y-60855131D01*
X92163586Y-60837297D01*
X92195323Y-60802817D01*
X92241010Y-60755268D01*
X92297204Y-60698222D01*
X92360468Y-60635255D01*
X92367602Y-60628227D01*
X92447330Y-60551020D01*
X92508857Y-60494330D01*
X92553421Y-60457110D01*
X92582257Y-60438315D01*
X92594958Y-60435889D01*
X92613494Y-60446471D01*
X92651961Y-60470916D01*
X92706386Y-60506612D01*
X92772798Y-60550947D01*
X92847225Y-60601311D01*
X92864601Y-60613160D01*
X93111297Y-60781626D01*
X93222706Y-60731062D01*
X93290457Y-60701595D01*
X93363183Y-60671959D01*
X93425703Y-60648330D01*
X93428457Y-60647358D01*
X93477360Y-60629457D01*
X93515057Y-60614320D01*
X93533425Y-60605210D01*
X93533456Y-60605184D01*
X93539285Y-60588717D01*
X93549192Y-60548219D01*
X93562195Y-60488242D01*
X93577309Y-60413340D01*
X93593552Y-60328064D01*
X93594881Y-60320875D01*
X93611175Y-60233014D01*
X93626133Y-60153260D01*
X93638791Y-60086681D01*
X93648186Y-60038347D01*
X93653354Y-60013325D01*
X93653444Y-60012943D01*
X93656589Y-60002299D01*
X93662704Y-59994262D01*
X93675453Y-59988467D01*
X93698500Y-59984547D01*
X93735509Y-59982135D01*
X93790144Y-59980865D01*
X93866067Y-59980371D01*
X93966944Y-59980286D01*
X93980000Y-59980286D01*
X94083910Y-59980348D01*
D12*
X137011000Y-72589000D02*
X140611000Y-72589000D01*
X141135184Y-71861795D02*
G75*
G02*
X140611000Y-72589000I-2324184J1122795D01*
G01*
X141167400Y-69640193D02*
G75*
G03*
X138811000Y-68139000I-2356400J-1098807D01*
G01*
X136454600Y-69640193D02*
G75*
G02*
X138811000Y-68139000I2356400J-1098807D01*
G01*
X136486816Y-71861795D02*
G75*
G03*
X137011000Y-72589000I2324184J1122795D01*
G01*
X123389000Y-75079000D02*
X123389000Y-71479000D01*
X122661795Y-70954816D02*
G75*
G02*
X123389000Y-71479000I-1122795J-2324184D01*
G01*
X120440193Y-70922600D02*
G75*
G03*
X118939000Y-73279000I1098807J-2356400D01*
G01*
X120440193Y-75635400D02*
G75*
G02*
X118939000Y-73279000I1098807J2356400D01*
G01*
X122661795Y-75603184D02*
G75*
G03*
X123389000Y-75079000I-1122795J2324184D01*
G01*
X123389000Y-95399000D02*
X123389000Y-91799000D01*
X122661795Y-91274816D02*
G75*
G02*
X123389000Y-91799000I-1122795J-2324184D01*
G01*
X120440193Y-91242600D02*
G75*
G03*
X118939000Y-93599000I1098807J-2356400D01*
G01*
X120440193Y-95955400D02*
G75*
G02*
X118939000Y-93599000I1098807J2356400D01*
G01*
X122661795Y-95923184D02*
G75*
G03*
X123389000Y-95399000I-1122795J2324184D01*
G01*
X135830000Y-74108000D02*
X135830000Y-76768000D01*
X161290000Y-74108000D02*
X135830000Y-74108000D01*
X161290000Y-76768000D02*
X135830000Y-76768000D01*
X161290000Y-74108000D02*
X161290000Y-76768000D01*
X162560000Y-74108000D02*
X163890000Y-74108000D01*
X163890000Y-74108000D02*
X163890000Y-75438000D01*
X180400000Y-81677000D02*
X180400000Y-80027000D01*
X180400000Y-80027000D02*
X170120000Y-80027000D01*
X170120000Y-80027000D02*
X170120000Y-85327000D01*
X170120000Y-85327000D02*
X180400000Y-85327000D01*
X180400000Y-85327000D02*
X180400000Y-83677000D01*
X180400000Y-83677000D02*
G75*
G02*
X180400000Y-81677000I0J1000000D01*
G01*
D13*
X178800000Y-75438000D02*
G75*
G03*
X178800000Y-75438000I-1000000J0D01*
G01*
X179085220Y-75466000D02*
G75*
G03*
X179085220Y-75466000I-20220J0D01*
G01*
D12*
X149112600Y-98647000D02*
X138872600Y-98647000D01*
X149112600Y-94006000D02*
X138872600Y-94006000D01*
X149112600Y-98647000D02*
X149112600Y-94006000D01*
X138872600Y-98647000D02*
X138872600Y-94006000D01*
X149112600Y-97137000D02*
X138872600Y-97137000D01*
X145842600Y-98647000D02*
X145842600Y-97137000D01*
X142141600Y-98647000D02*
X142141600Y-97137000D01*
X166430000Y-81677000D02*
X166430000Y-80027000D01*
X166430000Y-80027000D02*
X140910000Y-80027000D01*
X140910000Y-80027000D02*
X140910000Y-85327000D01*
X140910000Y-85327000D02*
X166430000Y-85327000D01*
X166430000Y-85327000D02*
X166430000Y-83677000D01*
X166430000Y-83677000D02*
G75*
G02*
X166430000Y-81677000I0J1000000D01*
G01*
X125670000Y-74152000D02*
X125670000Y-75802000D01*
X125670000Y-75802000D02*
X133410000Y-75802000D01*
X133410000Y-75802000D02*
X133410000Y-70502000D01*
X133410000Y-70502000D02*
X125670000Y-70502000D01*
X125670000Y-70502000D02*
X125670000Y-72152000D01*
X125670000Y-72152000D02*
G75*
G02*
X125670000Y-74152000I0J-1000000D01*
G01*
X125670000Y-94472000D02*
X125670000Y-96122000D01*
X125670000Y-96122000D02*
X133410000Y-96122000D01*
X133410000Y-96122000D02*
X133410000Y-90822000D01*
X133410000Y-90822000D02*
X125670000Y-90822000D01*
X125670000Y-90822000D02*
X125670000Y-92472000D01*
X125670000Y-92472000D02*
G75*
G02*
X125670000Y-94472000I0J-1000000D01*
G01*
X167370000Y-68365000D02*
X171870000Y-68365000D01*
X166120000Y-64365000D02*
X166120000Y-65865000D01*
X171870000Y-61865000D02*
X167370000Y-61865000D01*
X173120000Y-65865000D02*
X173120000Y-64365000D01*
X177784000Y-68365000D02*
X182284000Y-68365000D01*
X176534000Y-64365000D02*
X176534000Y-65865000D01*
X182284000Y-61865000D02*
X177784000Y-61865000D01*
X183534000Y-65865000D02*
X183534000Y-64365000D01*
X156956000Y-68365000D02*
X161456000Y-68365000D01*
X155706000Y-64365000D02*
X155706000Y-65865000D01*
X161456000Y-61865000D02*
X156956000Y-61865000D01*
X162706000Y-65865000D02*
X162706000Y-64365000D01*
X145320000Y-70842000D02*
X145320000Y-70512000D01*
X145320000Y-70512000D02*
X151860000Y-70512000D01*
X151860000Y-70512000D02*
X151860000Y-70842000D01*
X145320000Y-72922000D02*
X145320000Y-73252000D01*
X145320000Y-73252000D02*
X151860000Y-73252000D01*
X151860000Y-73252000D02*
X151860000Y-72922000D01*
X151860000Y-68350000D02*
X151860000Y-68680000D01*
X151860000Y-68680000D02*
X145320000Y-68680000D01*
X145320000Y-68680000D02*
X145320000Y-68350000D01*
X151860000Y-66270000D02*
X151860000Y-65940000D01*
X151860000Y-65940000D02*
X145320000Y-65940000D01*
X145320000Y-65940000D02*
X145320000Y-66270000D01*
X151860000Y-63905000D02*
X151860000Y-64235000D01*
X151860000Y-64235000D02*
X145320000Y-64235000D01*
X145320000Y-64235000D02*
X145320000Y-63905000D01*
X151860000Y-61825000D02*
X151860000Y-61495000D01*
X151860000Y-61495000D02*
X145320000Y-61495000D01*
X145320000Y-61495000D02*
X145320000Y-61825000D01*
X166402000Y-70842000D02*
X166402000Y-70512000D01*
X166402000Y-70512000D02*
X172942000Y-70512000D01*
X172942000Y-70512000D02*
X172942000Y-70842000D01*
X166402000Y-72922000D02*
X166402000Y-73252000D01*
X166402000Y-73252000D02*
X172942000Y-73252000D01*
X172942000Y-73252000D02*
X172942000Y-72922000D01*
X176816000Y-70842000D02*
X176816000Y-70512000D01*
X176816000Y-70512000D02*
X183356000Y-70512000D01*
X183356000Y-70512000D02*
X183356000Y-70842000D01*
X176816000Y-72922000D02*
X176816000Y-73252000D01*
X176816000Y-73252000D02*
X183356000Y-73252000D01*
X183356000Y-73252000D02*
X183356000Y-72922000D01*
X155988000Y-70842000D02*
X155988000Y-70512000D01*
X155988000Y-70512000D02*
X162528000Y-70512000D01*
X162528000Y-70512000D02*
X162528000Y-70842000D01*
X155988000Y-72922000D02*
X155988000Y-73252000D01*
X155988000Y-73252000D02*
X162528000Y-73252000D01*
X162528000Y-73252000D02*
X162528000Y-72922000D01*
X120555000Y-79732000D02*
X120555000Y-79402000D01*
X120555000Y-79402000D02*
X127095000Y-79402000D01*
X127095000Y-79402000D02*
X127095000Y-79732000D01*
X120555000Y-81812000D02*
X120555000Y-82142000D01*
X120555000Y-82142000D02*
X127095000Y-82142000D01*
X127095000Y-82142000D02*
X127095000Y-81812000D01*
X120555000Y-84812000D02*
X120555000Y-84482000D01*
X120555000Y-84482000D02*
X127095000Y-84482000D01*
X127095000Y-84482000D02*
X127095000Y-84812000D01*
X120555000Y-86892000D02*
X120555000Y-87222000D01*
X120555000Y-87222000D02*
X127095000Y-87222000D01*
X127095000Y-87222000D02*
X127095000Y-86892000D01*
X174530000Y-88622000D02*
X174530000Y-88292000D01*
X174530000Y-88292000D02*
X181070000Y-88292000D01*
X181070000Y-88292000D02*
X181070000Y-88622000D01*
X174530000Y-90702000D02*
X174530000Y-91032000D01*
X174530000Y-91032000D02*
X181070000Y-91032000D01*
X181070000Y-91032000D02*
X181070000Y-90702000D01*
X181070000Y-94512000D02*
X181070000Y-94842000D01*
X181070000Y-94842000D02*
X174530000Y-94842000D01*
X174530000Y-94842000D02*
X174530000Y-94512000D01*
X181070000Y-92432000D02*
X181070000Y-92102000D01*
X181070000Y-92102000D02*
X174530000Y-92102000D01*
X174530000Y-92102000D02*
X174530000Y-92432000D01*
X137255000Y-81812000D02*
X137255000Y-82142000D01*
X137255000Y-82142000D02*
X130715000Y-82142000D01*
X130715000Y-82142000D02*
X130715000Y-81812000D01*
X137255000Y-79732000D02*
X137255000Y-79402000D01*
X137255000Y-79402000D02*
X130715000Y-79402000D01*
X130715000Y-79402000D02*
X130715000Y-79732000D01*
X137255000Y-86892000D02*
X137255000Y-87222000D01*
X137255000Y-87222000D02*
X130715000Y-87222000D01*
X130715000Y-87222000D02*
X130715000Y-86892000D01*
X137255000Y-84812000D02*
X137255000Y-84482000D01*
X137255000Y-84482000D02*
X130715000Y-84482000D01*
X130715000Y-84482000D02*
X130715000Y-84812000D01*
D14*
X114640000Y-64902000D02*
X92140000Y-64902000D01*
X92140000Y-64902000D02*
X92140000Y-81402000D01*
X92140000Y-81402000D02*
X114640000Y-81402000D01*
X114640000Y-81402000D02*
X114640000Y-64902000D01*
D15*
X116190000Y-73152000D02*
X116190000Y-73152000D01*
X116090000Y-73152000D02*
X116090000Y-73152000D01*
X116390000Y-73152000D02*
G75*
G02*
X116090000Y-73152000I-150000J0D01*
G01*
X116290000Y-73152000D02*
G75*
G02*
X116190000Y-73152000I-50000J0D01*
G01*
D14*
X114640000Y-85222000D02*
X92140000Y-85222000D01*
X92140000Y-85222000D02*
X92140000Y-101722000D01*
X92140000Y-101722000D02*
X114640000Y-101722000D01*
X114640000Y-101722000D02*
X114640000Y-85222000D01*
D15*
X116190000Y-93472000D02*
X116190000Y-93472000D01*
X116090000Y-93472000D02*
X116090000Y-93472000D01*
X116390000Y-93472000D02*
G75*
G02*
X116090000Y-93472000I-150000J0D01*
G01*
X116290000Y-93472000D02*
G75*
G02*
X116190000Y-93472000I-50000J0D01*
G01*
D12*
X156150000Y-88332000D02*
X156150000Y-90992000D01*
X168910000Y-88332000D02*
X156150000Y-88332000D01*
X168910000Y-90992000D02*
X156150000Y-90992000D01*
X168910000Y-88332000D02*
X168910000Y-90992000D01*
X170180000Y-88332000D02*
X171510000Y-88332000D01*
X171510000Y-88332000D02*
X171510000Y-89662000D01*
D13*
X81425000Y-71247000D02*
X81425000Y-78867000D01*
X81425000Y-78867000D02*
X89925000Y-78867000D01*
X89925000Y-78867000D02*
X89925000Y-68457000D01*
X89925000Y-68457000D02*
X85725000Y-68457000D01*
X81552000Y-91567000D02*
X81552000Y-99187000D01*
X81552000Y-99187000D02*
X90052000Y-99187000D01*
X90052000Y-99187000D02*
X90052000Y-88777000D01*
X90052000Y-88777000D02*
X85852000Y-88777000D01*
X195308000Y-76200000D02*
X195308000Y-68580000D01*
X195308000Y-68580000D02*
X186808000Y-68580000D01*
X186808000Y-68580000D02*
X186808000Y-78990000D01*
X186808000Y-78990000D02*
X191008000Y-78990000D01*
X195308000Y-96266000D02*
X195308000Y-88646000D01*
X195308000Y-88646000D02*
X186808000Y-88646000D01*
X186808000Y-88646000D02*
X186808000Y-99056000D01*
X186808000Y-99056000D02*
X191008000Y-99056000D01*
D14*
X159842000Y-107562000D02*
X171882000Y-107562000D01*
X171882000Y-107562000D02*
X171882000Y-99482000D01*
X159842000Y-107562000D02*
X159842000Y-99482000D01*
X159842000Y-91852000D02*
X163862000Y-91852000D01*
X159842000Y-91852000D02*
X159842000Y-95082000D01*
X171882000Y-91852000D02*
X171882000Y-95082000D01*
X171882000Y-91852000D02*
X167862000Y-91852000D01*
D12*
X149760000Y-92102000D02*
X155000000Y-92102000D01*
X149760000Y-94842000D02*
X155000000Y-94842000D01*
X149760000Y-92102000D02*
X149760000Y-94842000D01*
X155000000Y-92102000D02*
X155000000Y-94842000D01*
X155040000Y-98652000D02*
X149800000Y-98652000D01*
X155040000Y-95912000D02*
X149800000Y-95912000D01*
X155040000Y-98652000D02*
X155040000Y-95912000D01*
X149800000Y-98652000D02*
X149800000Y-95912000D01*
X170842000Y-74068000D02*
X176082000Y-74068000D01*
X170842000Y-76808000D02*
X176082000Y-76808000D01*
X170842000Y-74068000D02*
X170842000Y-76808000D01*
X176082000Y-74068000D02*
X176082000Y-76808000D01*
X184758000Y-76808000D02*
X179518000Y-76808000D01*
X184758000Y-74068000D02*
X179518000Y-74068000D01*
X184758000Y-76808000D02*
X184758000Y-74068000D01*
X179518000Y-76808000D02*
X179518000Y-74068000D01*
X155040000Y-91032000D02*
X149800000Y-91032000D01*
X155040000Y-88292000D02*
X149800000Y-88292000D01*
X155040000Y-91032000D02*
X155040000Y-88292000D01*
X149800000Y-91032000D02*
X149800000Y-88292000D01*
X165000000Y-74068000D02*
X170240000Y-74068000D01*
X165000000Y-76808000D02*
X170240000Y-76808000D01*
X165000000Y-74068000D02*
X165000000Y-76808000D01*
X170240000Y-74068000D02*
X170240000Y-76808000D01*
X180440000Y-98398000D02*
X175200000Y-98398000D01*
X180440000Y-95658000D02*
X175200000Y-95658000D01*
X180440000Y-98398000D02*
X180440000Y-95658000D01*
X175200000Y-98398000D02*
X175200000Y-95658000D01*
D10*
X186737666Y-61555380D02*
X187356714Y-61555380D01*
X187023380Y-61936333D01*
X187166238Y-61936333D01*
X187261476Y-61983952D01*
X187309095Y-62031571D01*
X187356714Y-62126809D01*
X187356714Y-62364904D01*
X187309095Y-62460142D01*
X187261476Y-62507761D01*
X187166238Y-62555380D01*
X186880523Y-62555380D01*
X186785285Y-62507761D01*
X186737666Y-62460142D01*
X187769476Y-102528714D02*
X187769476Y-103195380D01*
X187531380Y-102147761D02*
X187293285Y-102862047D01*
X187912333Y-102862047D01*
X89503285Y-103306619D02*
X89550904Y-103259000D01*
X89646142Y-103211380D01*
X89884238Y-103211380D01*
X89979476Y-103259000D01*
X90027095Y-103306619D01*
X90074714Y-103401857D01*
X90074714Y-103497095D01*
X90027095Y-103639952D01*
X89455666Y-104211380D01*
X90074714Y-104211380D01*
X86645714Y-65857380D02*
X86074285Y-65857380D01*
X86360000Y-65857380D02*
X86360000Y-64857380D01*
X86264761Y-65000238D01*
X86169523Y-65095476D01*
X86074285Y-65143095D01*
X137191761Y-66714619D02*
X137096523Y-66667000D01*
X137001285Y-66571761D01*
X136858428Y-66428904D01*
X136763190Y-66381285D01*
X136667952Y-66381285D01*
X136715571Y-66619380D02*
X136620333Y-66571761D01*
X136525095Y-66476523D01*
X136477476Y-66286047D01*
X136477476Y-65952714D01*
X136525095Y-65762238D01*
X136620333Y-65667000D01*
X136715571Y-65619380D01*
X136906047Y-65619380D01*
X137001285Y-65667000D01*
X137096523Y-65762238D01*
X137144142Y-65952714D01*
X137144142Y-66286047D01*
X137096523Y-66476523D01*
X137001285Y-66571761D01*
X136906047Y-66619380D01*
X136715571Y-66619380D01*
X137477476Y-65619380D02*
X138096523Y-65619380D01*
X137763190Y-66000333D01*
X137906047Y-66000333D01*
X138001285Y-66047952D01*
X138048904Y-66095571D01*
X138096523Y-66190809D01*
X138096523Y-66428904D01*
X138048904Y-66524142D01*
X138001285Y-66571761D01*
X137906047Y-66619380D01*
X137620333Y-66619380D01*
X137525095Y-66571761D01*
X137477476Y-66524142D01*
X120935761Y-66714619D02*
X120840523Y-66667000D01*
X120745285Y-66571761D01*
X120602428Y-66428904D01*
X120507190Y-66381285D01*
X120411952Y-66381285D01*
X120459571Y-66619380D02*
X120364333Y-66571761D01*
X120269095Y-66476523D01*
X120221476Y-66286047D01*
X120221476Y-65952714D01*
X120269095Y-65762238D01*
X120364333Y-65667000D01*
X120459571Y-65619380D01*
X120650047Y-65619380D01*
X120745285Y-65667000D01*
X120840523Y-65762238D01*
X120888142Y-65952714D01*
X120888142Y-66286047D01*
X120840523Y-66476523D01*
X120745285Y-66571761D01*
X120650047Y-66619380D01*
X120459571Y-66619380D01*
X121269095Y-65714619D02*
X121316714Y-65667000D01*
X121411952Y-65619380D01*
X121650047Y-65619380D01*
X121745285Y-65667000D01*
X121792904Y-65714619D01*
X121840523Y-65809857D01*
X121840523Y-65905095D01*
X121792904Y-66047952D01*
X121221476Y-66619380D01*
X121840523Y-66619380D01*
X121443761Y-100750619D02*
X121348523Y-100703000D01*
X121253285Y-100607761D01*
X121110428Y-100464904D01*
X121015190Y-100417285D01*
X120919952Y-100417285D01*
X120967571Y-100655380D02*
X120872333Y-100607761D01*
X120777095Y-100512523D01*
X120729476Y-100322047D01*
X120729476Y-99988714D01*
X120777095Y-99798238D01*
X120872333Y-99703000D01*
X120967571Y-99655380D01*
X121158047Y-99655380D01*
X121253285Y-99703000D01*
X121348523Y-99798238D01*
X121396142Y-99988714D01*
X121396142Y-100322047D01*
X121348523Y-100512523D01*
X121253285Y-100607761D01*
X121158047Y-100655380D01*
X120967571Y-100655380D01*
X122348523Y-100655380D02*
X121777095Y-100655380D01*
X122062809Y-100655380D02*
X122062809Y-99655380D01*
X121967571Y-99798238D01*
X121872333Y-99893476D01*
X121777095Y-99941095D01*
X140509666Y-65619380D02*
X140509666Y-66333666D01*
X140462047Y-66476523D01*
X140366809Y-66571761D01*
X140223952Y-66619380D01*
X140128714Y-66619380D01*
X140890619Y-65619380D02*
X141557285Y-65619380D01*
X141128714Y-66619380D01*
X183642095Y-82256380D02*
X183642095Y-83065904D01*
X183689714Y-83161142D01*
X183737333Y-83208761D01*
X183832571Y-83256380D01*
X184023047Y-83256380D01*
X184118285Y-83208761D01*
X184165904Y-83161142D01*
X184213523Y-83065904D01*
X184213523Y-82256380D01*
X184594476Y-82256380D02*
X185213523Y-82256380D01*
X184880190Y-82637333D01*
X185023047Y-82637333D01*
X185118285Y-82684952D01*
X185165904Y-82732571D01*
X185213523Y-82827809D01*
X185213523Y-83065904D01*
X185165904Y-83161142D01*
X185118285Y-83208761D01*
X185023047Y-83256380D01*
X184737333Y-83256380D01*
X184642095Y-83208761D01*
X184594476Y-83161142D01*
X183927809Y-81129190D02*
X183927809Y-81605380D01*
X183594476Y-80605380D02*
X183927809Y-81129190D01*
X184261142Y-80605380D01*
X185118285Y-81605380D02*
X184546857Y-81605380D01*
X184832571Y-81605380D02*
X184832571Y-80605380D01*
X184737333Y-80748238D01*
X184642095Y-80843476D01*
X184546857Y-80891095D01*
X143129095Y-99655380D02*
X143129095Y-100464904D01*
X143176714Y-100560142D01*
X143224333Y-100607761D01*
X143319571Y-100655380D01*
X143510047Y-100655380D01*
X143605285Y-100607761D01*
X143652904Y-100560142D01*
X143700523Y-100464904D01*
X143700523Y-99655380D01*
X144652904Y-99655380D02*
X144176714Y-99655380D01*
X144129095Y-100131571D01*
X144176714Y-100083952D01*
X144271952Y-100036333D01*
X144510047Y-100036333D01*
X144605285Y-100083952D01*
X144652904Y-100131571D01*
X144700523Y-100226809D01*
X144700523Y-100464904D01*
X144652904Y-100560142D01*
X144605285Y-100607761D01*
X144510047Y-100655380D01*
X144271952Y-100655380D01*
X144176714Y-100607761D01*
X144129095Y-100560142D01*
X167386095Y-82256380D02*
X167386095Y-83065904D01*
X167433714Y-83161142D01*
X167481333Y-83208761D01*
X167576571Y-83256380D01*
X167767047Y-83256380D01*
X167862285Y-83208761D01*
X167909904Y-83161142D01*
X167957523Y-83065904D01*
X167957523Y-82256380D01*
X168862285Y-82589714D02*
X168862285Y-83256380D01*
X168624190Y-82208761D02*
X168386095Y-82923047D01*
X169005142Y-82923047D01*
X128524095Y-65619380D02*
X128524095Y-66428904D01*
X128571714Y-66524142D01*
X128619333Y-66571761D01*
X128714571Y-66619380D01*
X128905047Y-66619380D01*
X129000285Y-66571761D01*
X129047904Y-66524142D01*
X129095523Y-66428904D01*
X129095523Y-65619380D01*
X129524095Y-65714619D02*
X129571714Y-65667000D01*
X129666952Y-65619380D01*
X129905047Y-65619380D01*
X130000285Y-65667000D01*
X130047904Y-65714619D01*
X130095523Y-65809857D01*
X130095523Y-65905095D01*
X130047904Y-66047952D01*
X129476476Y-66619380D01*
X130095523Y-66619380D01*
X129032095Y-99782380D02*
X129032095Y-100591904D01*
X129079714Y-100687142D01*
X129127333Y-100734761D01*
X129222571Y-100782380D01*
X129413047Y-100782380D01*
X129508285Y-100734761D01*
X129555904Y-100687142D01*
X129603523Y-100591904D01*
X129603523Y-99782380D01*
X130603523Y-100782380D02*
X130032095Y-100782380D01*
X130317809Y-100782380D02*
X130317809Y-99782380D01*
X130222571Y-99925238D01*
X130127333Y-100020476D01*
X130032095Y-100068095D01*
X168286666Y-61110761D02*
X168429523Y-61158380D01*
X168667619Y-61158380D01*
X168762857Y-61110761D01*
X168810476Y-61063142D01*
X168858095Y-60967904D01*
X168858095Y-60872666D01*
X168810476Y-60777428D01*
X168762857Y-60729809D01*
X168667619Y-60682190D01*
X168477142Y-60634571D01*
X168381904Y-60586952D01*
X168334285Y-60539333D01*
X168286666Y-60444095D01*
X168286666Y-60348857D01*
X168334285Y-60253619D01*
X168381904Y-60206000D01*
X168477142Y-60158380D01*
X168715238Y-60158380D01*
X168858095Y-60206000D01*
X169191428Y-60158380D02*
X169429523Y-61158380D01*
X169620000Y-60444095D01*
X169810476Y-61158380D01*
X170048571Y-60158380D01*
X170334285Y-60158380D02*
X170953333Y-60158380D01*
X170620000Y-60539333D01*
X170762857Y-60539333D01*
X170858095Y-60586952D01*
X170905714Y-60634571D01*
X170953333Y-60729809D01*
X170953333Y-60967904D01*
X170905714Y-61063142D01*
X170858095Y-61110761D01*
X170762857Y-61158380D01*
X170477142Y-61158380D01*
X170381904Y-61110761D01*
X170334285Y-61063142D01*
X178700666Y-61110761D02*
X178843523Y-61158380D01*
X179081619Y-61158380D01*
X179176857Y-61110761D01*
X179224476Y-61063142D01*
X179272095Y-60967904D01*
X179272095Y-60872666D01*
X179224476Y-60777428D01*
X179176857Y-60729809D01*
X179081619Y-60682190D01*
X178891142Y-60634571D01*
X178795904Y-60586952D01*
X178748285Y-60539333D01*
X178700666Y-60444095D01*
X178700666Y-60348857D01*
X178748285Y-60253619D01*
X178795904Y-60206000D01*
X178891142Y-60158380D01*
X179129238Y-60158380D01*
X179272095Y-60206000D01*
X179605428Y-60158380D02*
X179843523Y-61158380D01*
X180034000Y-60444095D01*
X180224476Y-61158380D01*
X180462571Y-60158380D01*
X180795904Y-60253619D02*
X180843523Y-60206000D01*
X180938761Y-60158380D01*
X181176857Y-60158380D01*
X181272095Y-60206000D01*
X181319714Y-60253619D01*
X181367333Y-60348857D01*
X181367333Y-60444095D01*
X181319714Y-60586952D01*
X180748285Y-61158380D01*
X181367333Y-61158380D01*
X157797666Y-61110761D02*
X157940523Y-61158380D01*
X158178619Y-61158380D01*
X158273857Y-61110761D01*
X158321476Y-61063142D01*
X158369095Y-60967904D01*
X158369095Y-60872666D01*
X158321476Y-60777428D01*
X158273857Y-60729809D01*
X158178619Y-60682190D01*
X157988142Y-60634571D01*
X157892904Y-60586952D01*
X157845285Y-60539333D01*
X157797666Y-60444095D01*
X157797666Y-60348857D01*
X157845285Y-60253619D01*
X157892904Y-60206000D01*
X157988142Y-60158380D01*
X158226238Y-60158380D01*
X158369095Y-60206000D01*
X158702428Y-60158380D02*
X158940523Y-61158380D01*
X159131000Y-60444095D01*
X159321476Y-61158380D01*
X159559571Y-60158380D01*
X160464333Y-61158380D02*
X159892904Y-61158380D01*
X160178619Y-61158380D02*
X160178619Y-60158380D01*
X160083380Y-60301238D01*
X159988142Y-60396476D01*
X159892904Y-60444095D01*
X148074142Y-70048380D02*
X147740809Y-69572190D01*
X147502714Y-70048380D02*
X147502714Y-69048380D01*
X147883666Y-69048380D01*
X147978904Y-69096000D01*
X148026523Y-69143619D01*
X148074142Y-69238857D01*
X148074142Y-69381714D01*
X148026523Y-69476952D01*
X147978904Y-69524571D01*
X147883666Y-69572190D01*
X147502714Y-69572190D01*
X149026523Y-70048380D02*
X148455095Y-70048380D01*
X148740809Y-70048380D02*
X148740809Y-69048380D01*
X148645571Y-69191238D01*
X148550333Y-69286476D01*
X148455095Y-69334095D01*
X149407476Y-69143619D02*
X149455095Y-69096000D01*
X149550333Y-69048380D01*
X149788428Y-69048380D01*
X149883666Y-69096000D01*
X149931285Y-69143619D01*
X149978904Y-69238857D01*
X149978904Y-69334095D01*
X149931285Y-69476952D01*
X149359857Y-70048380D01*
X149978904Y-70048380D01*
X147947142Y-65603380D02*
X147613809Y-65127190D01*
X147375714Y-65603380D02*
X147375714Y-64603380D01*
X147756666Y-64603380D01*
X147851904Y-64651000D01*
X147899523Y-64698619D01*
X147947142Y-64793857D01*
X147947142Y-64936714D01*
X147899523Y-65031952D01*
X147851904Y-65079571D01*
X147756666Y-65127190D01*
X147375714Y-65127190D01*
X148899523Y-65603380D02*
X148328095Y-65603380D01*
X148613809Y-65603380D02*
X148613809Y-64603380D01*
X148518571Y-64746238D01*
X148423333Y-64841476D01*
X148328095Y-64889095D01*
X149851904Y-65603380D02*
X149280476Y-65603380D01*
X149566190Y-65603380D02*
X149566190Y-64603380D01*
X149470952Y-64746238D01*
X149375714Y-64841476D01*
X149280476Y-64889095D01*
X147947142Y-61158380D02*
X147613809Y-60682190D01*
X147375714Y-61158380D02*
X147375714Y-60158380D01*
X147756666Y-60158380D01*
X147851904Y-60206000D01*
X147899523Y-60253619D01*
X147947142Y-60348857D01*
X147947142Y-60491714D01*
X147899523Y-60586952D01*
X147851904Y-60634571D01*
X147756666Y-60682190D01*
X147375714Y-60682190D01*
X148899523Y-61158380D02*
X148328095Y-61158380D01*
X148613809Y-61158380D02*
X148613809Y-60158380D01*
X148518571Y-60301238D01*
X148423333Y-60396476D01*
X148328095Y-60444095D01*
X149518571Y-60158380D02*
X149613809Y-60158380D01*
X149709047Y-60206000D01*
X149756666Y-60253619D01*
X149804285Y-60348857D01*
X149851904Y-60539333D01*
X149851904Y-60777428D01*
X149804285Y-60967904D01*
X149756666Y-61063142D01*
X149709047Y-61110761D01*
X149613809Y-61158380D01*
X149518571Y-61158380D01*
X149423333Y-61110761D01*
X149375714Y-61063142D01*
X149328095Y-60967904D01*
X149280476Y-60777428D01*
X149280476Y-60539333D01*
X149328095Y-60348857D01*
X149375714Y-60253619D01*
X149423333Y-60206000D01*
X149518571Y-60158380D01*
X169632333Y-70048380D02*
X169299000Y-69572190D01*
X169060904Y-70048380D02*
X169060904Y-69048380D01*
X169441857Y-69048380D01*
X169537095Y-69096000D01*
X169584714Y-69143619D01*
X169632333Y-69238857D01*
X169632333Y-69381714D01*
X169584714Y-69476952D01*
X169537095Y-69524571D01*
X169441857Y-69572190D01*
X169060904Y-69572190D01*
X170108523Y-70048380D02*
X170299000Y-70048380D01*
X170394238Y-70000761D01*
X170441857Y-69953142D01*
X170537095Y-69810285D01*
X170584714Y-69619809D01*
X170584714Y-69238857D01*
X170537095Y-69143619D01*
X170489476Y-69096000D01*
X170394238Y-69048380D01*
X170203761Y-69048380D01*
X170108523Y-69096000D01*
X170060904Y-69143619D01*
X170013285Y-69238857D01*
X170013285Y-69476952D01*
X170060904Y-69572190D01*
X170108523Y-69619809D01*
X170203761Y-69667428D01*
X170394238Y-69667428D01*
X170489476Y-69619809D01*
X170537095Y-69572190D01*
X170584714Y-69476952D01*
X179919333Y-70048380D02*
X179586000Y-69572190D01*
X179347904Y-70048380D02*
X179347904Y-69048380D01*
X179728857Y-69048380D01*
X179824095Y-69096000D01*
X179871714Y-69143619D01*
X179919333Y-69238857D01*
X179919333Y-69381714D01*
X179871714Y-69476952D01*
X179824095Y-69524571D01*
X179728857Y-69572190D01*
X179347904Y-69572190D01*
X180490761Y-69476952D02*
X180395523Y-69429333D01*
X180347904Y-69381714D01*
X180300285Y-69286476D01*
X180300285Y-69238857D01*
X180347904Y-69143619D01*
X180395523Y-69096000D01*
X180490761Y-69048380D01*
X180681238Y-69048380D01*
X180776476Y-69096000D01*
X180824095Y-69143619D01*
X180871714Y-69238857D01*
X180871714Y-69286476D01*
X180824095Y-69381714D01*
X180776476Y-69429333D01*
X180681238Y-69476952D01*
X180490761Y-69476952D01*
X180395523Y-69524571D01*
X180347904Y-69572190D01*
X180300285Y-69667428D01*
X180300285Y-69857904D01*
X180347904Y-69953142D01*
X180395523Y-70000761D01*
X180490761Y-70048380D01*
X180681238Y-70048380D01*
X180776476Y-70000761D01*
X180824095Y-69953142D01*
X180871714Y-69857904D01*
X180871714Y-69667428D01*
X180824095Y-69572190D01*
X180776476Y-69524571D01*
X180681238Y-69476952D01*
X159091333Y-70048380D02*
X158758000Y-69572190D01*
X158519904Y-70048380D02*
X158519904Y-69048380D01*
X158900857Y-69048380D01*
X158996095Y-69096000D01*
X159043714Y-69143619D01*
X159091333Y-69238857D01*
X159091333Y-69381714D01*
X159043714Y-69476952D01*
X158996095Y-69524571D01*
X158900857Y-69572190D01*
X158519904Y-69572190D01*
X159424666Y-69048380D02*
X160091333Y-69048380D01*
X159662761Y-70048380D01*
X126071333Y-83764380D02*
X125738000Y-83288190D01*
X125499904Y-83764380D02*
X125499904Y-82764380D01*
X125880857Y-82764380D01*
X125976095Y-82812000D01*
X126023714Y-82859619D01*
X126071333Y-82954857D01*
X126071333Y-83097714D01*
X126023714Y-83192952D01*
X125976095Y-83240571D01*
X125880857Y-83288190D01*
X125499904Y-83288190D01*
X126928476Y-82764380D02*
X126738000Y-82764380D01*
X126642761Y-82812000D01*
X126595142Y-82859619D01*
X126499904Y-83002476D01*
X126452285Y-83192952D01*
X126452285Y-83573904D01*
X126499904Y-83669142D01*
X126547523Y-83716761D01*
X126642761Y-83764380D01*
X126833238Y-83764380D01*
X126928476Y-83716761D01*
X126976095Y-83669142D01*
X127023714Y-83573904D01*
X127023714Y-83335809D01*
X126976095Y-83240571D01*
X126928476Y-83192952D01*
X126833238Y-83145333D01*
X126642761Y-83145333D01*
X126547523Y-83192952D01*
X126499904Y-83240571D01*
X126452285Y-83335809D01*
X121245333Y-83764380D02*
X120912000Y-83288190D01*
X120673904Y-83764380D02*
X120673904Y-82764380D01*
X121054857Y-82764380D01*
X121150095Y-82812000D01*
X121197714Y-82859619D01*
X121245333Y-82954857D01*
X121245333Y-83097714D01*
X121197714Y-83192952D01*
X121150095Y-83240571D01*
X121054857Y-83288190D01*
X120673904Y-83288190D01*
X122150095Y-82764380D02*
X121673904Y-82764380D01*
X121626285Y-83240571D01*
X121673904Y-83192952D01*
X121769142Y-83145333D01*
X122007238Y-83145333D01*
X122102476Y-83192952D01*
X122150095Y-83240571D01*
X122197714Y-83335809D01*
X122197714Y-83573904D01*
X122150095Y-83669142D01*
X122102476Y-83716761D01*
X122007238Y-83764380D01*
X121769142Y-83764380D01*
X121673904Y-83716761D01*
X121626285Y-83669142D01*
X184237333Y-90114380D02*
X183904000Y-89638190D01*
X183665904Y-90114380D02*
X183665904Y-89114380D01*
X184046857Y-89114380D01*
X184142095Y-89162000D01*
X184189714Y-89209619D01*
X184237333Y-89304857D01*
X184237333Y-89447714D01*
X184189714Y-89542952D01*
X184142095Y-89590571D01*
X184046857Y-89638190D01*
X183665904Y-89638190D01*
X185094476Y-89447714D02*
X185094476Y-90114380D01*
X184856380Y-89066761D02*
X184618285Y-89781047D01*
X185237333Y-89781047D01*
X184237333Y-93924380D02*
X183904000Y-93448190D01*
X183665904Y-93924380D02*
X183665904Y-92924380D01*
X184046857Y-92924380D01*
X184142095Y-92972000D01*
X184189714Y-93019619D01*
X184237333Y-93114857D01*
X184237333Y-93257714D01*
X184189714Y-93352952D01*
X184142095Y-93400571D01*
X184046857Y-93448190D01*
X183665904Y-93448190D01*
X184570666Y-92924380D02*
X185189714Y-92924380D01*
X184856380Y-93305333D01*
X184999238Y-93305333D01*
X185094476Y-93352952D01*
X185142095Y-93400571D01*
X185189714Y-93495809D01*
X185189714Y-93733904D01*
X185142095Y-93829142D01*
X185094476Y-93876761D01*
X184999238Y-93924380D01*
X184713523Y-93924380D01*
X184618285Y-93876761D01*
X184570666Y-93829142D01*
X136231333Y-83764380D02*
X135898000Y-83288190D01*
X135659904Y-83764380D02*
X135659904Y-82764380D01*
X136040857Y-82764380D01*
X136136095Y-82812000D01*
X136183714Y-82859619D01*
X136231333Y-82954857D01*
X136231333Y-83097714D01*
X136183714Y-83192952D01*
X136136095Y-83240571D01*
X136040857Y-83288190D01*
X135659904Y-83288190D01*
X136612285Y-82859619D02*
X136659904Y-82812000D01*
X136755142Y-82764380D01*
X136993238Y-82764380D01*
X137088476Y-82812000D01*
X137136095Y-82859619D01*
X137183714Y-82954857D01*
X137183714Y-83050095D01*
X137136095Y-83192952D01*
X136564666Y-83764380D01*
X137183714Y-83764380D01*
X131405333Y-83764380D02*
X131072000Y-83288190D01*
X130833904Y-83764380D02*
X130833904Y-82764380D01*
X131214857Y-82764380D01*
X131310095Y-82812000D01*
X131357714Y-82859619D01*
X131405333Y-82954857D01*
X131405333Y-83097714D01*
X131357714Y-83192952D01*
X131310095Y-83240571D01*
X131214857Y-83288190D01*
X130833904Y-83288190D01*
X132357714Y-83764380D02*
X131786285Y-83764380D01*
X132072000Y-83764380D02*
X132072000Y-82764380D01*
X131976761Y-82907238D01*
X131881523Y-83002476D01*
X131786285Y-83050095D01*
X85621904Y-67762380D02*
X85621904Y-66762380D01*
X86193333Y-67762380D02*
X85764761Y-67190952D01*
X86193333Y-66762380D02*
X85621904Y-67333809D01*
X86574285Y-66857619D02*
X86621904Y-66810000D01*
X86717142Y-66762380D01*
X86955238Y-66762380D01*
X87050476Y-66810000D01*
X87098095Y-66857619D01*
X87145714Y-66952857D01*
X87145714Y-67048095D01*
X87098095Y-67190952D01*
X86526666Y-67762380D01*
X87145714Y-67762380D01*
X88669904Y-102052380D02*
X88669904Y-101052380D01*
X89241333Y-102052380D02*
X88812761Y-101480952D01*
X89241333Y-101052380D02*
X88669904Y-101623809D01*
X90193714Y-102052380D02*
X89622285Y-102052380D01*
X89908000Y-102052380D02*
X89908000Y-101052380D01*
X89812761Y-101195238D01*
X89717523Y-101290476D01*
X89622285Y-101338095D01*
X167814666Y-86320380D02*
X167814666Y-87034666D01*
X167767047Y-87177523D01*
X167671809Y-87272761D01*
X167528952Y-87320380D01*
X167433714Y-87320380D01*
X168719428Y-86320380D02*
X168528952Y-86320380D01*
X168433714Y-86368000D01*
X168386095Y-86415619D01*
X168290857Y-86558476D01*
X168243238Y-86748952D01*
X168243238Y-87129904D01*
X168290857Y-87225142D01*
X168338476Y-87272761D01*
X168433714Y-87320380D01*
X168624190Y-87320380D01*
X168719428Y-87272761D01*
X168767047Y-87225142D01*
X168814666Y-87129904D01*
X168814666Y-86891809D01*
X168767047Y-86796571D01*
X168719428Y-86748952D01*
X168624190Y-86701333D01*
X168433714Y-86701333D01*
X168338476Y-86748952D01*
X168290857Y-86796571D01*
X168243238Y-86891809D01*
X82089666Y-79843380D02*
X82089666Y-80557666D01*
X82042047Y-80700523D01*
X81946809Y-80795761D01*
X81803952Y-80843380D01*
X81708714Y-80843380D01*
X83042047Y-79843380D02*
X82565857Y-79843380D01*
X82518238Y-80319571D01*
X82565857Y-80271952D01*
X82661095Y-80224333D01*
X82899190Y-80224333D01*
X82994428Y-80271952D01*
X83042047Y-80319571D01*
X83089666Y-80414809D01*
X83089666Y-80652904D01*
X83042047Y-80748142D01*
X82994428Y-80795761D01*
X82899190Y-80843380D01*
X82661095Y-80843380D01*
X82565857Y-80795761D01*
X82518238Y-80748142D01*
X82216666Y-86955380D02*
X82216666Y-87669666D01*
X82169047Y-87812523D01*
X82073809Y-87907761D01*
X81930952Y-87955380D01*
X81835714Y-87955380D01*
X83121428Y-87288714D02*
X83121428Y-87955380D01*
X82883333Y-86907761D02*
X82645238Y-87622047D01*
X83264285Y-87622047D01*
X193595666Y-79970380D02*
X193595666Y-80684666D01*
X193548047Y-80827523D01*
X193452809Y-80922761D01*
X193309952Y-80970380D01*
X193214714Y-80970380D01*
X193976619Y-79970380D02*
X194595666Y-79970380D01*
X194262333Y-80351333D01*
X194405190Y-80351333D01*
X194500428Y-80398952D01*
X194548047Y-80446571D01*
X194595666Y-80541809D01*
X194595666Y-80779904D01*
X194548047Y-80875142D01*
X194500428Y-80922761D01*
X194405190Y-80970380D01*
X194119476Y-80970380D01*
X194024238Y-80922761D01*
X193976619Y-80875142D01*
X193722666Y-86955380D02*
X193722666Y-87669666D01*
X193675047Y-87812523D01*
X193579809Y-87907761D01*
X193436952Y-87955380D01*
X193341714Y-87955380D01*
X194151238Y-87050619D02*
X194198857Y-87003000D01*
X194294095Y-86955380D01*
X194532190Y-86955380D01*
X194627428Y-87003000D01*
X194675047Y-87050619D01*
X194722666Y-87145857D01*
X194722666Y-87241095D01*
X194675047Y-87383952D01*
X194103619Y-87955380D01*
X194722666Y-87955380D01*
X156130666Y-99655380D02*
X156130666Y-100369666D01*
X156083047Y-100512523D01*
X155987809Y-100607761D01*
X155844952Y-100655380D01*
X155749714Y-100655380D01*
X157130666Y-100655380D02*
X156559238Y-100655380D01*
X156844952Y-100655380D02*
X156844952Y-99655380D01*
X156749714Y-99798238D01*
X156654476Y-99893476D01*
X156559238Y-99941095D01*
X156297333Y-93829142D02*
X156249714Y-93876761D01*
X156106857Y-93924380D01*
X156011619Y-93924380D01*
X155868761Y-93876761D01*
X155773523Y-93781523D01*
X155725904Y-93686285D01*
X155678285Y-93495809D01*
X155678285Y-93352952D01*
X155725904Y-93162476D01*
X155773523Y-93067238D01*
X155868761Y-92972000D01*
X156011619Y-92924380D01*
X156106857Y-92924380D01*
X156249714Y-92972000D01*
X156297333Y-93019619D01*
X156630666Y-92924380D02*
X157297333Y-92924380D01*
X156868761Y-93924380D01*
X156297333Y-97639142D02*
X156249714Y-97686761D01*
X156106857Y-97734380D01*
X156011619Y-97734380D01*
X155868761Y-97686761D01*
X155773523Y-97591523D01*
X155725904Y-97496285D01*
X155678285Y-97305809D01*
X155678285Y-97162952D01*
X155725904Y-96972476D01*
X155773523Y-96877238D01*
X155868761Y-96782000D01*
X156011619Y-96734380D01*
X156106857Y-96734380D01*
X156249714Y-96782000D01*
X156297333Y-96829619D01*
X157154476Y-96734380D02*
X156964000Y-96734380D01*
X156868761Y-96782000D01*
X156821142Y-96829619D01*
X156725904Y-96972476D01*
X156678285Y-97162952D01*
X156678285Y-97543904D01*
X156725904Y-97639142D01*
X156773523Y-97686761D01*
X156868761Y-97734380D01*
X157059238Y-97734380D01*
X157154476Y-97686761D01*
X157202095Y-97639142D01*
X157249714Y-97543904D01*
X157249714Y-97305809D01*
X157202095Y-97210571D01*
X157154476Y-97162952D01*
X157059238Y-97115333D01*
X156868761Y-97115333D01*
X156773523Y-97162952D01*
X156725904Y-97210571D01*
X156678285Y-97305809D01*
X184237333Y-79859142D02*
X184189714Y-79906761D01*
X184046857Y-79954380D01*
X183951619Y-79954380D01*
X183808761Y-79906761D01*
X183713523Y-79811523D01*
X183665904Y-79716285D01*
X183618285Y-79525809D01*
X183618285Y-79382952D01*
X183665904Y-79192476D01*
X183713523Y-79097238D01*
X183808761Y-79002000D01*
X183951619Y-78954380D01*
X184046857Y-78954380D01*
X184189714Y-79002000D01*
X184237333Y-79049619D01*
X185142095Y-78954380D02*
X184665904Y-78954380D01*
X184618285Y-79430571D01*
X184665904Y-79382952D01*
X184761142Y-79335333D01*
X184999238Y-79335333D01*
X185094476Y-79382952D01*
X185142095Y-79430571D01*
X185189714Y-79525809D01*
X185189714Y-79763904D01*
X185142095Y-79859142D01*
X185094476Y-79906761D01*
X184999238Y-79954380D01*
X184761142Y-79954380D01*
X184665904Y-79906761D01*
X184618285Y-79859142D01*
X184237333Y-78208142D02*
X184189714Y-78255761D01*
X184046857Y-78303380D01*
X183951619Y-78303380D01*
X183808761Y-78255761D01*
X183713523Y-78160523D01*
X183665904Y-78065285D01*
X183618285Y-77874809D01*
X183618285Y-77731952D01*
X183665904Y-77541476D01*
X183713523Y-77446238D01*
X183808761Y-77351000D01*
X183951619Y-77303380D01*
X184046857Y-77303380D01*
X184189714Y-77351000D01*
X184237333Y-77398619D01*
X185094476Y-77636714D02*
X185094476Y-78303380D01*
X184856380Y-77255761D02*
X184618285Y-77970047D01*
X185237333Y-77970047D01*
X147788333Y-90019142D02*
X147740714Y-90066761D01*
X147597857Y-90114380D01*
X147502619Y-90114380D01*
X147359761Y-90066761D01*
X147264523Y-89971523D01*
X147216904Y-89876285D01*
X147169285Y-89685809D01*
X147169285Y-89542952D01*
X147216904Y-89352476D01*
X147264523Y-89257238D01*
X147359761Y-89162000D01*
X147502619Y-89114380D01*
X147597857Y-89114380D01*
X147740714Y-89162000D01*
X147788333Y-89209619D01*
X148121666Y-89114380D02*
X148740714Y-89114380D01*
X148407380Y-89495333D01*
X148550238Y-89495333D01*
X148645476Y-89542952D01*
X148693095Y-89590571D01*
X148740714Y-89685809D01*
X148740714Y-89923904D01*
X148693095Y-90019142D01*
X148645476Y-90066761D01*
X148550238Y-90114380D01*
X148264523Y-90114380D01*
X148169285Y-90066761D01*
X148121666Y-90019142D01*
X167473333Y-78081142D02*
X167425714Y-78128761D01*
X167282857Y-78176380D01*
X167187619Y-78176380D01*
X167044761Y-78128761D01*
X166949523Y-78033523D01*
X166901904Y-77938285D01*
X166854285Y-77747809D01*
X166854285Y-77604952D01*
X166901904Y-77414476D01*
X166949523Y-77319238D01*
X167044761Y-77224000D01*
X167187619Y-77176380D01*
X167282857Y-77176380D01*
X167425714Y-77224000D01*
X167473333Y-77271619D01*
X167854285Y-77271619D02*
X167901904Y-77224000D01*
X167997142Y-77176380D01*
X168235238Y-77176380D01*
X168330476Y-77224000D01*
X168378095Y-77271619D01*
X168425714Y-77366857D01*
X168425714Y-77462095D01*
X168378095Y-77604952D01*
X167806666Y-78176380D01*
X168425714Y-78176380D01*
X184237333Y-97385142D02*
X184189714Y-97432761D01*
X184046857Y-97480380D01*
X183951619Y-97480380D01*
X183808761Y-97432761D01*
X183713523Y-97337523D01*
X183665904Y-97242285D01*
X183618285Y-97051809D01*
X183618285Y-96908952D01*
X183665904Y-96718476D01*
X183713523Y-96623238D01*
X183808761Y-96528000D01*
X183951619Y-96480380D01*
X184046857Y-96480380D01*
X184189714Y-96528000D01*
X184237333Y-96575619D01*
X185189714Y-97480380D02*
X184618285Y-97480380D01*
X184904000Y-97480380D02*
X184904000Y-96480380D01*
X184808761Y-96623238D01*
X184713523Y-96718476D01*
X184618285Y-96766095D01*
M02*
