solid
 facet normal -1.000000e+00  0.000000e+00  0.000000e+00
   outer loop
     vertex -2.540000e+00  3.225000e+00  1.251000e+01
     vertex -2.540000e+00  2.740000e+00  1.251000e+01
     vertex -2.540000e+00  3.225000e+00  1.886000e+01
   endloop
 endfacet
 facet normal -1.000000e+00 -0.000000e+00  0.000000e+00
   outer loop
     vertex -2.540000e+00  3.225000e+00  1.886000e+01
     vertex -2.540000e+00  2.740000e+00  1.251000e+01
     vertex -2.540000e+00  2.740000e+00  1.886000e+01
   endloop
 endfacet
 facet normal -8.571870e-17 -1.000000e+00 -8.049522e-17
   outer loop
     vertex -2.540000e+00  2.740000e+00  1.251000e+01
     vertex  1.190786e+00  2.740000e+00  1.405408e+01
     vertex  8.275807e-01  2.740000e+00  1.444085e+01
   endloop
 endfacet
 facet normal -7.204717e-17 -1.000000e+00 -1.135282e-16
   outer loop
     vertex  1.190786e+00  2.740000e+00  1.405408e+01
     vertex -2.540000e+00  2.740000e+00  1.251000e+01
     vertex  1.638767e+00  2.740000e+00  1.376978e+01
   endloop
 endfacet
 facet normal -1.002668e-16 -1.000000e+00 -5.512212e-17
   outer loop
     vertex -2.540000e+00  2.740000e+00  1.251000e+01
     vertex  8.275807e-01  2.740000e+00  1.444085e+01
     vertex  5.719731e-01  2.740000e+00  1.490580e+01
   endloop
 endfacet
 facet normal -5.512541e-17 -1.000000e+00 -1.696586e-16
   outer loop
     vertex  1.638767e+00  2.740000e+00  1.376978e+01
     vertex -2.540000e+00  2.740000e+00  1.251000e+01
     vertex  2.143376e+00  2.740000e+00  1.360583e+01
   endloop
 endfacet
 facet normal -6.746246e-16 -1.000000e+00  6.909268e-16
   outer loop
     vertex -2.540000e+00  2.740000e+00  1.251000e+01
     vertex  5.719731e-01  2.740000e+00  1.490580e+01
     vertex  4.400239e-01  2.740000e+00  1.541971e+01
   endloop
 endfacet
 facet normal -2.009361e-17 -1.000000e+00 -3.193787e-16
   outer loop
     vertex  2.143376e+00  2.740000e+00  1.360583e+01
     vertex -2.540000e+00  2.740000e+00  1.251000e+01
     vertex  2.672907e+00  2.740000e+00  1.357251e+01
   endloop
 endfacet
 facet normal  0.000000e+00 -1.000000e+00  0.000000e+00
   outer loop
     vertex -2.540000e+00  2.740000e+00  1.251000e+01
     vertex  4.400239e-01  2.740000e+00  1.541971e+01
     vertex -2.540000e+00  2.740000e+00  1.886000e+01
   endloop
 endfacet
 facet normal  0.000000e+00 -1.000000e+00  0.000000e+00
   outer loop
     vertex -2.540000e+00  2.740000e+00  1.886000e+01
     vertex  4.400239e-01  2.740000e+00  1.541971e+01
     vertex  4.400239e-01  2.740000e+00  1.595029e+01
   endloop
 endfacet
 facet normal  0.000000e+00 -1.000000e+00  0.000000e+00
   outer loop
     vertex -2.540000e+00  2.740000e+00  1.886000e+01
     vertex  4.400239e-01  2.740000e+00  1.595029e+01
     vertex  5.719731e-01  2.740000e+00  1.646420e+01
   endloop
 endfacet
 facet normal  0.000000e+00 -1.000000e+00  0.000000e+00
   outer loop
     vertex -2.540000e+00  2.740000e+00  1.886000e+01
     vertex  5.719731e-01  2.740000e+00  1.646420e+01
     vertex  8.275807e-01  2.740000e+00  1.692915e+01
   endloop
 endfacet
 facet normal  4.279249e-16 -1.000000e+00  7.463389e-16
   outer loop
     vertex -2.540000e+00  2.740000e+00  1.886000e+01
     vertex  8.275807e-01  2.740000e+00  1.692915e+01
     vertex  1.190786e+00  2.740000e+00  1.731592e+01
   endloop
 endfacet
 facet normal  7.204717e-17 -1.000000e+00 -1.135282e-16
   outer loop
     vertex -2.540000e+00  2.740000e+00  1.886000e+01
     vertex  1.190786e+00  2.740000e+00  1.731592e+01
     vertex  1.638767e+00  2.740000e+00  1.760022e+01
   endloop
 endfacet
 facet normal  5.512541e-17 -1.000000e+00 -1.696586e-16
   outer loop
     vertex -2.540000e+00  2.740000e+00  1.886000e+01
     vertex  1.638767e+00  2.740000e+00  1.760022e+01
     vertex  2.143376e+00  2.740000e+00  1.776417e+01
   endloop
 endfacet
 facet normal  4.222598e-17 -1.000000e+00 -2.213563e-16
   outer loop
     vertex  3.194086e+00  2.740000e+00  1.367193e+01
     vertex  2.672907e+00  2.740000e+00  1.357251e+01
     vertex  7.620000e+00  2.740000e+00  1.251000e+01
   endloop
 endfacet
 facet normal  6.440610e-17 -1.000000e+00 -1.368699e-16
   outer loop
     vertex  3.674167e+00  2.740000e+00  1.389784e+01
     vertex  3.194086e+00  2.740000e+00  1.367193e+01
     vertex  7.620000e+00  2.740000e+00  1.251000e+01
   endloop
 endfacet
 facet normal  7.897106e-17 -1.000000e+00 -9.545961e-17
   outer loop
     vertex  4.082984e+00  2.740000e+00  1.423604e+01
     vertex  3.674167e+00  2.740000e+00  1.389784e+01
     vertex  7.620000e+00  2.740000e+00  1.251000e+01
   endloop
 endfacet
 facet normal  9.269124e-17 -1.000000e+00 -6.734413e-17
   outer loop
     vertex  4.394849e+00  2.740000e+00  1.466529e+01
     vertex  4.082984e+00  2.740000e+00  1.423604e+01
     vertex  7.620000e+00  2.740000e+00  1.251000e+01
   endloop
 endfacet
 facet normal  5.846029e-16 -1.000000e+00  6.687475e-16
   outer loop
     vertex  4.590168e+00  2.740000e+00  1.515861e+01
     vertex  4.394849e+00  2.740000e+00  1.466529e+01
     vertex  7.620000e+00  2.740000e+00  1.251000e+01
   endloop
 endfacet
 facet normal  0.000000e+00 -1.000000e+00  0.000000e+00
   outer loop
     vertex  4.590168e+00  2.740000e+00  1.515861e+01
     vertex  7.620000e+00  2.740000e+00  1.251000e+01
     vertex  4.656667e+00  2.740000e+00  1.568500e+01
   endloop
 endfacet
 facet normal  2.009361e-17 -1.000000e+00 -3.193787e-16
   outer loop
     vertex -2.540000e+00  2.740000e+00  1.886000e+01
     vertex  2.143376e+00  2.740000e+00  1.776417e+01
     vertex  2.672907e+00  2.740000e+00  1.779749e+01
   endloop
 endfacet
 facet normal  0.000000e+00 -1.000000e+00  0.000000e+00
   outer loop
     vertex  4.590168e+00  2.740000e+00  1.621139e+01
     vertex  4.656667e+00  2.740000e+00  1.568500e+01
     vertex  7.620000e+00  2.740000e+00  1.886000e+01
   endloop
 endfacet
 facet normal  0.000000e+00 -1.000000e+00  0.000000e+00
   outer loop
     vertex  4.394849e+00  2.740000e+00  1.670471e+01
     vertex  4.590168e+00  2.740000e+00  1.621139e+01
     vertex  7.620000e+00  2.740000e+00  1.886000e+01
   endloop
 endfacet
 facet normal  0.000000e+00 -1.000000e+00  0.000000e+00
   outer loop
     vertex  4.082984e+00  2.740000e+00  1.713396e+01
     vertex  4.394849e+00  2.740000e+00  1.670471e+01
     vertex  7.620000e+00  2.740000e+00  1.886000e+01
   endloop
 endfacet
 facet normal -4.030345e-16 -1.000000e+00  8.259008e-16
   outer loop
     vertex  3.674167e+00  2.740000e+00  1.747216e+01
     vertex  4.082984e+00  2.740000e+00  1.713396e+01
     vertex  7.620000e+00  2.740000e+00  1.886000e+01
   endloop
 endfacet
 facet normal -6.440610e-17 -1.000000e+00 -1.368699e-16
   outer loop
     vertex  3.194086e+00  2.740000e+00  1.769807e+01
     vertex  3.674167e+00  2.740000e+00  1.747216e+01
     vertex  7.620000e+00  2.740000e+00  1.886000e+01
   endloop
 endfacet
 facet normal -4.222598e-17 -1.000000e+00 -2.213563e-16
   outer loop
     vertex  2.672907e+00  2.740000e+00  1.779749e+01
     vertex  3.194086e+00  2.740000e+00  1.769807e+01
     vertex  7.620000e+00  2.740000e+00  1.886000e+01
   endloop
 endfacet
 facet normal  0.000000e+00 -1.000000e+00  0.000000e+00
   outer loop
     vertex  4.656667e+00  2.740000e+00  1.568500e+01
     vertex  7.620000e+00  2.740000e+00  1.251000e+01
     vertex  7.620000e+00  2.740000e+00  1.886000e+01
   endloop
 endfacet
 facet normal  0.000000e+00 -1.000000e+00 -4.179623e-16
   outer loop
     vertex  2.672907e+00  2.740000e+00  1.357251e+01
     vertex -2.540000e+00  2.740000e+00  1.251000e+01
     vertex  7.620000e+00  2.740000e+00  1.251000e+01
   endloop
 endfacet
 facet normal -0.000000e+00 -1.000000e+00 -4.179623e-16
   outer loop
     vertex  2.672907e+00  2.740000e+00  1.779749e+01
     vertex  7.620000e+00  2.740000e+00  1.886000e+01
     vertex -2.540000e+00  2.740000e+00  1.886000e+01
   endloop
 endfacet
 facet normal  0.000000e+00  0.000000e+00  1.000000e+00
   outer loop
     vertex  7.620000e+00  3.225000e+00  1.886000e+01
     vertex -2.540000e+00  3.225000e+00  1.886000e+01
     vertex -2.540000e+00  2.740000e+00  1.886000e+01
   endloop
 endfacet
 facet normal -0.000000e+00  0.000000e+00  1.000000e+00
   outer loop
     vertex  7.620000e+00  3.225000e+00  1.886000e+01
     vertex -2.540000e+00  2.740000e+00  1.886000e+01
     vertex  7.620000e+00  2.740000e+00  1.886000e+01
   endloop
 endfacet
 facet normal  8.571870e-17  1.000000e+00  8.049522e-17
   outer loop
     vertex  8.275807e-01  3.225000e+00  1.444085e+01
     vertex  1.190786e+00  3.225000e+00  1.405408e+01
     vertex -2.540000e+00  3.225000e+00  1.251000e+01
   endloop
 endfacet
 facet normal  7.204717e-17  1.000000e+00  1.135282e-16
   outer loop
     vertex  1.638767e+00  3.225000e+00  1.376978e+01
     vertex -2.540000e+00  3.225000e+00  1.251000e+01
     vertex  1.190786e+00  3.225000e+00  1.405408e+01
   endloop
 endfacet
 facet normal  5.166581e-16  1.000000e+00 -6.711012e-16
   outer loop
     vertex  5.719731e-01  3.225000e+00  1.490580e+01
     vertex  8.275807e-01  3.225000e+00  1.444085e+01
     vertex -2.540000e+00  3.225000e+00  1.251000e+01
   endloop
 endfacet
 facet normal  5.512541e-17  1.000000e+00  1.696586e-16
   outer loop
     vertex  2.143376e+00  3.225000e+00  1.360583e+01
     vertex -2.540000e+00  3.225000e+00  1.251000e+01
     vertex  1.638767e+00  3.225000e+00  1.376978e+01
   endloop
 endfacet
 facet normal  0.000000e+00  1.000000e+00  0.000000e+00
   outer loop
     vertex  4.400239e-01  3.225000e+00  1.541971e+01
     vertex  5.719731e-01  3.225000e+00  1.490580e+01
     vertex -2.540000e+00  3.225000e+00  1.251000e+01
   endloop
 endfacet
 facet normal  2.009361e-17  1.000000e+00  3.193787e-16
   outer loop
     vertex  2.672907e+00  3.225000e+00  1.357251e+01
     vertex -2.540000e+00  3.225000e+00  1.251000e+01
     vertex  2.143376e+00  3.225000e+00  1.360583e+01
   endloop
 endfacet
 facet normal  0.000000e+00  1.000000e+00  0.000000e+00
   outer loop
     vertex -2.540000e+00  3.225000e+00  1.886000e+01
     vertex  4.400239e-01  3.225000e+00  1.541971e+01
     vertex -2.540000e+00  3.225000e+00  1.251000e+01
   endloop
 endfacet
 facet normal  0.000000e+00  1.000000e+00  0.000000e+00
   outer loop
     vertex  4.400239e-01  3.225000e+00  1.595029e+01
     vertex  4.400239e-01  3.225000e+00  1.541971e+01
     vertex -2.540000e+00  3.225000e+00  1.886000e+01
   endloop
 endfacet
 facet normal  0.000000e+00  1.000000e+00  0.000000e+00
   outer loop
     vertex  5.719731e-01  3.225000e+00  1.646420e+01
     vertex  4.400239e-01  3.225000e+00  1.595029e+01
     vertex -2.540000e+00  3.225000e+00  1.886000e+01
   endloop
 endfacet
 facet normal -5.166581e-16  1.000000e+00 -6.711012e-16
   outer loop
     vertex  8.275807e-01  3.225000e+00  1.692915e+01
     vertex  5.719731e-01  3.225000e+00  1.646420e+01
     vertex -2.540000e+00  3.225000e+00  1.886000e+01
   endloop
 endfacet
 facet normal -8.571870e-17  1.000000e+00  8.049522e-17
   outer loop
     vertex  1.190786e+00  3.225000e+00  1.731592e+01
     vertex  8.275807e-01  3.225000e+00  1.692915e+01
     vertex -2.540000e+00  3.225000e+00  1.886000e+01
   endloop
 endfacet
 facet normal -7.204717e-17  1.000000e+00  1.135282e-16
   outer loop
     vertex  1.638767e+00  3.225000e+00  1.760022e+01
     vertex  1.190786e+00  3.225000e+00  1.731592e+01
     vertex -2.540000e+00  3.225000e+00  1.886000e+01
   endloop
 endfacet
 facet normal -5.512541e-17  1.000000e+00  1.696586e-16
   outer loop
     vertex  2.143376e+00  3.225000e+00  1.776417e+01
     vertex  1.638767e+00  3.225000e+00  1.760022e+01
     vertex -2.540000e+00  3.225000e+00  1.886000e+01
   endloop
 endfacet
 facet normal -4.222598e-17  1.000000e+00  2.213563e-16
   outer loop
     vertex  7.620000e+00  3.225000e+00  1.251000e+01
     vertex  2.672907e+00  3.225000e+00  1.357251e+01
     vertex  3.194086e+00  3.225000e+00  1.367193e+01
   endloop
 endfacet
 facet normal -6.440610e-17  1.000000e+00  1.368699e-16
   outer loop
     vertex  7.620000e+00  3.225000e+00  1.251000e+01
     vertex  3.194086e+00  3.225000e+00  1.367193e+01
     vertex  3.674167e+00  3.225000e+00  1.389784e+01
   endloop
 endfacet
 facet normal -7.897106e-17  1.000000e+00  9.545961e-17
   outer loop
     vertex  7.620000e+00  3.225000e+00  1.251000e+01
     vertex  3.674167e+00  3.225000e+00  1.389784e+01
     vertex  4.082984e+00  3.225000e+00  1.423604e+01
   endloop
 endfacet
 facet normal -9.269124e-17  1.000000e+00  6.734413e-17
   outer loop
     vertex  7.620000e+00  3.225000e+00  1.251000e+01
     vertex  4.082984e+00  3.225000e+00  1.423604e+01
     vertex  4.394849e+00  3.225000e+00  1.466529e+01
   endloop
 endfacet
 facet normal -5.846029e-16  1.000000e+00 -6.687475e-16
   outer loop
     vertex  7.620000e+00  3.225000e+00  1.251000e+01
     vertex  4.394849e+00  3.225000e+00  1.466529e+01
     vertex  4.590168e+00  3.225000e+00  1.515861e+01
   endloop
 endfacet
 facet normal  0.000000e+00  1.000000e+00  0.000000e+00
   outer loop
     vertex  4.656667e+00  3.225000e+00  1.568500e+01
     vertex  7.620000e+00  3.225000e+00  1.251000e+01
     vertex  4.590168e+00  3.225000e+00  1.515861e+01
   endloop
 endfacet
 facet normal -2.009361e-17  1.000000e+00  3.193787e-16
   outer loop
     vertex  2.672907e+00  3.225000e+00  1.779749e+01
     vertex  2.143376e+00  3.225000e+00  1.776417e+01
     vertex -2.540000e+00  3.225000e+00  1.886000e+01
   endloop
 endfacet
 facet normal  0.000000e+00  1.000000e+00  0.000000e+00
   outer loop
     vertex  7.620000e+00  3.225000e+00  1.886000e+01
     vertex  4.656667e+00  3.225000e+00  1.568500e+01
     vertex  4.590168e+00  3.225000e+00  1.621139e+01
   endloop
 endfacet
 facet normal  5.846029e-16  1.000000e+00 -6.687475e-16
   outer loop
     vertex  7.620000e+00  3.225000e+00  1.886000e+01
     vertex  4.590168e+00  3.225000e+00  1.621139e+01
     vertex  4.394849e+00  3.225000e+00  1.670471e+01
   endloop
 endfacet
 facet normal  9.269124e-17  1.000000e+00  6.734413e-17
   outer loop
     vertex  7.620000e+00  3.225000e+00  1.886000e+01
     vertex  4.394849e+00  3.225000e+00  1.670471e+01
     vertex  4.082984e+00  3.225000e+00  1.713396e+01
   endloop
 endfacet
 facet normal  7.897106e-17  1.000000e+00  9.545961e-17
   outer loop
     vertex  7.620000e+00  3.225000e+00  1.886000e+01
     vertex  4.082984e+00  3.225000e+00  1.713396e+01
     vertex  3.674167e+00  3.225000e+00  1.747216e+01
   endloop
 endfacet
 facet normal  6.440610e-17  1.000000e+00  1.368699e-16
   outer loop
     vertex  7.620000e+00  3.225000e+00  1.886000e+01
     vertex  3.674167e+00  3.225000e+00  1.747216e+01
     vertex  3.194086e+00  3.225000e+00  1.769807e+01
   endloop
 endfacet
 facet normal  4.222598e-17  1.000000e+00  2.213563e-16
   outer loop
     vertex  7.620000e+00  3.225000e+00  1.886000e+01
     vertex  3.194086e+00  3.225000e+00  1.769807e+01
     vertex  2.672907e+00  3.225000e+00  1.779749e+01
   endloop
 endfacet
 facet normal  0.000000e+00  1.000000e+00  0.000000e+00
   outer loop
     vertex  7.620000e+00  3.225000e+00  1.886000e+01
     vertex  7.620000e+00  3.225000e+00  1.251000e+01
     vertex  4.656667e+00  3.225000e+00  1.568500e+01
   endloop
 endfacet
 facet normal  0.000000e+00  1.000000e+00  4.179623e-16
   outer loop
     vertex  7.620000e+00  3.225000e+00  1.251000e+01
     vertex -2.540000e+00  3.225000e+00  1.251000e+01
     vertex  2.672907e+00  3.225000e+00  1.357251e+01
   endloop
 endfacet
 facet normal -0.000000e+00  1.000000e+00  4.179623e-16
   outer loop
     vertex -2.540000e+00  3.225000e+00  1.886000e+01
     vertex  7.620000e+00  3.225000e+00  1.886000e+01
     vertex  2.672907e+00  3.225000e+00  1.779749e+01
   endloop
 endfacet
 facet normal  0.000000e+00  0.000000e+00 -1.000000e+00
   outer loop
     vertex -2.540000e+00  2.740000e+00  1.251000e+01
     vertex -2.540000e+00  3.225000e+00  1.251000e+01
     vertex  7.620000e+00  3.225000e+00  1.251000e+01
   endloop
 endfacet
 facet normal  0.000000e+00  0.000000e+00 -1.000000e+00
   outer loop
     vertex  7.620000e+00  2.740000e+00  1.251000e+01
     vertex -2.540000e+00  2.740000e+00  1.251000e+01
     vertex  7.620000e+00  3.225000e+00  1.251000e+01
   endloop
 endfacet
 facet normal  1.000000e+00 -0.000000e+00  0.000000e+00
   outer loop
     vertex  7.620000e+00  3.225000e+00  1.886000e+01
     vertex  7.620000e+00  2.740000e+00  1.251000e+01
     vertex  7.620000e+00  3.225000e+00  1.251000e+01
   endloop
 endfacet
 facet normal  1.000000e+00 -0.000000e+00  0.000000e+00
   outer loop
     vertex  7.620000e+00  2.740000e+00  1.886000e+01
     vertex  7.620000e+00  2.740000e+00  1.251000e+01
     vertex  7.620000e+00  3.225000e+00  1.886000e+01
   endloop
 endfacet
 facet normal -1.873813e-01  0.000000e+00  9.822873e-01
   outer loop
     vertex  3.194086e+00  3.225000e+00  1.367193e+01
     vertex  2.672907e+00  2.740000e+00  1.357251e+01
     vertex  3.194086e+00  2.740000e+00  1.367193e+01
   endloop
 endfacet
 facet normal -4.257793e-01  0.000000e+00  9.048271e-01
   outer loop
     vertex  3.674167e+00  3.225000e+00  1.389784e+01
     vertex  3.194086e+00  3.225000e+00  1.367193e+01
     vertex  3.674167e+00  2.740000e+00  1.389784e+01
   endloop
 endfacet
 facet normal -4.257793e-01  0.000000e+00  9.048271e-01
   outer loop
     vertex  3.194086e+00  3.225000e+00  1.367193e+01
     vertex  3.194086e+00  2.740000e+00  1.367193e+01
     vertex  3.674167e+00  2.740000e+00  1.389784e+01
   endloop
 endfacet
 facet normal -9.921147e-01  0.000000e+00 -1.253332e-01
   outer loop
     vertex  4.590168e+00  3.225000e+00  1.621139e+01
     vertex  4.656667e+00  3.225000e+00  1.568500e+01
     vertex  4.590168e+00  2.740000e+00  1.621139e+01
   endloop
 endfacet
 facet normal -6.374240e-01  0.000000e+00  7.705132e-01
   outer loop
     vertex  4.082984e+00  3.225000e+00  1.423604e+01
     vertex  3.674167e+00  3.225000e+00  1.389784e+01
     vertex  4.082984e+00  2.740000e+00  1.423604e+01
   endloop
 endfacet
 facet normal -9.921147e-01 -0.000000e+00 -1.253332e-01
   outer loop
     vertex  4.656667e+00  3.225000e+00  1.568500e+01
     vertex  4.656667e+00  2.740000e+00  1.568500e+01
     vertex  4.590168e+00  2.740000e+00  1.621139e+01
   endloop
 endfacet
 facet normal -6.374240e-01  0.000000e+00  7.705132e-01
   outer loop
     vertex  3.674167e+00  3.225000e+00  1.389784e+01
     vertex  3.674167e+00  2.740000e+00  1.389784e+01
     vertex  4.082984e+00  2.740000e+00  1.423604e+01
   endloop
 endfacet
 facet normal -9.297765e-01  0.000000e+00 -3.681246e-01
   outer loop
     vertex  4.394849e+00  3.225000e+00  1.670471e+01
     vertex  4.590168e+00  3.225000e+00  1.621139e+01
     vertex  4.394849e+00  2.740000e+00  1.670471e+01
   endloop
 endfacet
 facet normal -8.090170e-01  0.000000e+00  5.877853e-01
   outer loop
     vertex  4.394849e+00  3.225000e+00  1.466529e+01
     vertex  4.082984e+00  3.225000e+00  1.423604e+01
     vertex  4.394849e+00  2.740000e+00  1.466529e+01
   endloop
 endfacet
 facet normal -9.297765e-01 -0.000000e+00 -3.681246e-01
   outer loop
     vertex  4.590168e+00  3.225000e+00  1.621139e+01
     vertex  4.590168e+00  2.740000e+00  1.621139e+01
     vertex  4.394849e+00  2.740000e+00  1.670471e+01
   endloop
 endfacet
 facet normal -8.090170e-01  0.000000e+00  5.877853e-01
   outer loop
     vertex  4.082984e+00  3.225000e+00  1.423604e+01
     vertex  4.082984e+00  2.740000e+00  1.423604e+01
     vertex  4.394849e+00  2.740000e+00  1.466529e+01
   endloop
 endfacet
 facet normal -8.090170e-01  0.000000e+00 -5.877853e-01
   outer loop
     vertex  4.082984e+00  3.225000e+00  1.713396e+01
     vertex  4.394849e+00  3.225000e+00  1.670471e+01
     vertex  4.082984e+00  2.740000e+00  1.713396e+01
   endloop
 endfacet
 facet normal -9.297765e-01  0.000000e+00  3.681246e-01
   outer loop
     vertex  4.590168e+00  3.225000e+00  1.515861e+01
     vertex  4.394849e+00  3.225000e+00  1.466529e+01
     vertex  4.590168e+00  2.740000e+00  1.515861e+01
   endloop
 endfacet
 facet normal -6.374240e-01 -0.000000e+00 -7.705132e-01
   outer loop
     vertex  3.674167e+00  3.225000e+00  1.747216e+01
     vertex  4.082984e+00  3.225000e+00  1.713396e+01
     vertex  4.082984e+00  2.740000e+00  1.713396e+01
   endloop
 endfacet
 facet normal -8.090170e-01 -0.000000e+00 -5.877853e-01
   outer loop
     vertex  4.394849e+00  3.225000e+00  1.670471e+01
     vertex  4.394849e+00  2.740000e+00  1.670471e+01
     vertex  4.082984e+00  2.740000e+00  1.713396e+01
   endloop
 endfacet
 facet normal -9.297765e-01  0.000000e+00  3.681246e-01
   outer loop
     vertex  4.394849e+00  3.225000e+00  1.466529e+01
     vertex  4.394849e+00  2.740000e+00  1.466529e+01
     vertex  4.590168e+00  2.740000e+00  1.515861e+01
   endloop
 endfacet
 facet normal -9.921147e-01  0.000000e+00  1.253332e-01
   outer loop
     vertex  4.656667e+00  3.225000e+00  1.568500e+01
     vertex  4.590168e+00  3.225000e+00  1.515861e+01
     vertex  4.656667e+00  2.740000e+00  1.568500e+01
   endloop
 endfacet
 facet normal -9.921147e-01  0.000000e+00  1.253332e-01
   outer loop
     vertex  4.590168e+00  3.225000e+00  1.515861e+01
     vertex  4.590168e+00  2.740000e+00  1.515861e+01
     vertex  4.656667e+00  2.740000e+00  1.568500e+01
   endloop
 endfacet
 facet normal -6.374240e-01  0.000000e+00 -7.705132e-01
   outer loop
     vertex  3.674167e+00  3.225000e+00  1.747216e+01
     vertex  4.082984e+00  2.740000e+00  1.713396e+01
     vertex  3.674167e+00  2.740000e+00  1.747216e+01
   endloop
 endfacet
 facet normal -4.257793e-01  0.000000e+00 -9.048271e-01
   outer loop
     vertex  3.194086e+00  3.225000e+00  1.769807e+01
     vertex  3.674167e+00  3.225000e+00  1.747216e+01
     vertex  3.194086e+00  2.740000e+00  1.769807e+01
   endloop
 endfacet
 facet normal -1.873813e-01 -0.000000e+00 -9.822873e-01
   outer loop
     vertex  2.672907e+00  3.225000e+00  1.779749e+01
     vertex  3.194086e+00  3.225000e+00  1.769807e+01
     vertex  3.194086e+00  2.740000e+00  1.769807e+01
   endloop
 endfacet
 facet normal -4.257793e-01 -0.000000e+00 -9.048271e-01
   outer loop
     vertex  3.674167e+00  3.225000e+00  1.747216e+01
     vertex  3.674167e+00  2.740000e+00  1.747216e+01
     vertex  3.194086e+00  2.740000e+00  1.769807e+01
   endloop
 endfacet
 facet normal  6.279052e-02  0.000000e+00 -9.980267e-01
   outer loop
     vertex  2.143376e+00  3.225000e+00  1.776417e+01
     vertex  2.672907e+00  3.225000e+00  1.779749e+01
     vertex  2.672907e+00  2.740000e+00  1.779749e+01
   endloop
 endfacet
 facet normal -1.873813e-01  0.000000e+00 -9.822873e-01
   outer loop
     vertex  2.672907e+00  3.225000e+00  1.779749e+01
     vertex  3.194086e+00  2.740000e+00  1.769807e+01
     vertex  2.672907e+00  2.740000e+00  1.779749e+01
   endloop
 endfacet
 facet normal  6.279052e-02  0.000000e+00 -9.980267e-01
   outer loop
     vertex  2.143376e+00  3.225000e+00  1.776417e+01
     vertex  2.672907e+00  2.740000e+00  1.779749e+01
     vertex  2.143376e+00  2.740000e+00  1.776417e+01
   endloop
 endfacet
 facet normal  3.090170e-01  0.000000e+00 -9.510565e-01
   outer loop
     vertex  1.638767e+00  3.225000e+00  1.760022e+01
     vertex  2.143376e+00  3.225000e+00  1.776417e+01
     vertex  1.638767e+00  2.740000e+00  1.760022e+01
   endloop
 endfacet
 facet normal  3.090170e-01  0.000000e+00 -9.510565e-01
   outer loop
     vertex  2.143376e+00  3.225000e+00  1.776417e+01
     vertex  2.143376e+00  2.740000e+00  1.776417e+01
     vertex  1.638767e+00  2.740000e+00  1.760022e+01
   endloop
 endfacet
 facet normal  5.358268e-01  0.000000e+00 -8.443279e-01
   outer loop
     vertex  1.190786e+00  3.225000e+00  1.731592e+01
     vertex  1.638767e+00  3.225000e+00  1.760022e+01
     vertex  1.190786e+00  2.740000e+00  1.731592e+01
   endloop
 endfacet
 facet normal  7.289686e-01  0.000000e+00 -6.845471e-01
   outer loop
     vertex  8.275807e-01  3.225000e+00  1.692915e+01
     vertex  1.190786e+00  3.225000e+00  1.731592e+01
     vertex  1.190786e+00  2.740000e+00  1.731592e+01
   endloop
 endfacet
 facet normal  5.358268e-01  0.000000e+00 -8.443279e-01
   outer loop
     vertex  1.638767e+00  3.225000e+00  1.760022e+01
     vertex  1.638767e+00  2.740000e+00  1.760022e+01
     vertex  1.190786e+00  2.740000e+00  1.731592e+01
   endloop
 endfacet
 facet normal  7.289686e-01  0.000000e+00 -6.845471e-01
   outer loop
     vertex  8.275807e-01  3.225000e+00  1.692915e+01
     vertex  1.190786e+00  2.740000e+00  1.731592e+01
     vertex  8.275807e-01  2.740000e+00  1.692915e+01
   endloop
 endfacet
 facet normal  8.763067e-01 -3.505445e-15 -4.817537e-01
   outer loop
     vertex  5.719731e-01  3.225000e+00  1.646420e+01
     vertex  8.275807e-01  3.225000e+00  1.692915e+01
     vertex  5.719731e-01  2.740000e+00  1.646420e+01
   endloop
 endfacet
 facet normal  9.685832e-01 -1.821699e-15 -2.486899e-01
   outer loop
     vertex  4.400239e-01  3.225000e+00  1.595029e+01
     vertex  5.719731e-01  3.225000e+00  1.646420e+01
     vertex  5.719731e-01  2.740000e+00  1.646420e+01
   endloop
 endfacet
 facet normal  8.763067e-01  0.000000e+00 -4.817537e-01
   outer loop
     vertex  8.275807e-01  3.225000e+00  1.692915e+01
     vertex  8.275807e-01  2.740000e+00  1.692915e+01
     vertex  5.719731e-01  2.740000e+00  1.646420e+01
   endloop
 endfacet
 facet normal  9.685832e-01  0.000000e+00 -2.486899e-01
   outer loop
     vertex  4.400239e-01  3.225000e+00  1.595029e+01
     vertex  5.719731e-01  2.740000e+00  1.646420e+01
     vertex  4.400239e-01  2.740000e+00  1.595029e+01
   endloop
 endfacet
 facet normal  1.000000e+00  0.000000e+00 -8.369924e-16
   outer loop
     vertex  4.400239e-01  3.225000e+00  1.595029e+01
     vertex  4.400239e-01  2.740000e+00  1.595029e+01
     vertex  4.400239e-01  2.740000e+00  1.541971e+01
   endloop
 endfacet
 facet normal  1.000000e+00  0.000000e+00 -8.369924e-16
   outer loop
     vertex  4.400239e-01  3.225000e+00  1.541971e+01
     vertex  4.400239e-01  3.225000e+00  1.595029e+01
     vertex  4.400239e-01  2.740000e+00  1.541971e+01
   endloop
 endfacet
 facet normal  9.685832e-01  0.000000e+00  2.486899e-01
   outer loop
     vertex  4.400239e-01  3.225000e+00  1.541971e+01
     vertex  4.400239e-01  2.740000e+00  1.541971e+01
     vertex  5.719731e-01  2.740000e+00  1.490580e+01
   endloop
 endfacet
 facet normal  9.685832e-01  0.000000e+00  2.486899e-01
   outer loop
     vertex  5.719731e-01  3.225000e+00  1.490580e+01
     vertex  4.400239e-01  3.225000e+00  1.541971e+01
     vertex  5.719731e-01  2.740000e+00  1.490580e+01
   endloop
 endfacet
 facet normal  8.763067e-01  0.000000e+00  4.817537e-01
   outer loop
     vertex  5.719731e-01  3.225000e+00  1.490580e+01
     vertex  5.719731e-01  2.740000e+00  1.490580e+01
     vertex  8.275807e-01  2.740000e+00  1.444085e+01
   endloop
 endfacet
 facet normal  8.763067e-01  0.000000e+00  4.817537e-01
   outer loop
     vertex  8.275807e-01  3.225000e+00  1.444085e+01
     vertex  5.719731e-01  3.225000e+00  1.490580e+01
     vertex  8.275807e-01  2.740000e+00  1.444085e+01
   endloop
 endfacet
 facet normal  7.289686e-01  0.000000e+00  6.845471e-01
   outer loop
     vertex  8.275807e-01  3.225000e+00  1.444085e+01
     vertex  8.275807e-01  2.740000e+00  1.444085e+01
     vertex  1.190786e+00  2.740000e+00  1.405408e+01
   endloop
 endfacet
 facet normal  7.289686e-01  0.000000e+00  6.845471e-01
   outer loop
     vertex  1.190786e+00  3.225000e+00  1.405408e+01
     vertex  8.275807e-01  3.225000e+00  1.444085e+01
     vertex  1.190786e+00  2.740000e+00  1.405408e+01
   endloop
 endfacet
 facet normal  5.358268e-01  0.000000e+00  8.443279e-01
   outer loop
     vertex  1.638767e+00  3.225000e+00  1.376978e+01
     vertex  1.190786e+00  3.225000e+00  1.405408e+01
     vertex  1.638767e+00  2.740000e+00  1.376978e+01
   endloop
 endfacet
 facet normal  5.358268e-01  0.000000e+00  8.443279e-01
   outer loop
     vertex  1.190786e+00  3.225000e+00  1.405408e+01
     vertex  1.190786e+00  2.740000e+00  1.405408e+01
     vertex  1.638767e+00  2.740000e+00  1.376978e+01
   endloop
 endfacet
 facet normal  3.090170e-01  0.000000e+00  9.510565e-01
   outer loop
     vertex  2.143376e+00  3.225000e+00  1.360583e+01
     vertex  1.638767e+00  3.225000e+00  1.376978e+01
     vertex  2.143376e+00  2.740000e+00  1.360583e+01
   endloop
 endfacet
 facet normal  3.090170e-01  0.000000e+00  9.510565e-01
   outer loop
     vertex  1.638767e+00  3.225000e+00  1.376978e+01
     vertex  1.638767e+00  2.740000e+00  1.376978e+01
     vertex  2.143376e+00  2.740000e+00  1.360583e+01
   endloop
 endfacet
 facet normal  6.279052e-02  0.000000e+00  9.980267e-01
   outer loop
     vertex  2.672907e+00  3.225000e+00  1.357251e+01
     vertex  2.143376e+00  3.225000e+00  1.360583e+01
     vertex  2.672907e+00  2.740000e+00  1.357251e+01
   endloop
 endfacet
 facet normal -1.873813e-01  0.000000e+00  9.822873e-01
   outer loop
     vertex  3.194086e+00  3.225000e+00  1.367193e+01
     vertex  2.672907e+00  3.225000e+00  1.357251e+01
     vertex  2.672907e+00  2.740000e+00  1.357251e+01
   endloop
 endfacet
 facet normal  6.279052e-02  0.000000e+00  9.980267e-01
   outer loop
     vertex  2.143376e+00  3.225000e+00  1.360583e+01
     vertex  2.143376e+00  2.740000e+00  1.360583e+01
     vertex  2.672907e+00  2.740000e+00  1.357251e+01
   endloop
 endfacet
 facet normal -1.000000e+00  0.000000e+00  0.000000e+00
   outer loop
     vertex -2.540000e+00  3.225000e+00  3.810000e+00
     vertex -2.540000e+00 -1.605000e+00  3.810000e+00
     vertex -2.540000e+00 -1.605000e+00  1.009500e+01
   endloop
 endfacet
 facet normal -1.000000e+00 -0.000000e+00 -0.000000e+00
   outer loop
     vertex -2.540000e+00  3.225000e+00  1.251000e+01
     vertex -2.540000e+00  3.225000e+00  3.810000e+00
     vertex -2.540000e+00 -1.605000e+00  1.009500e+01
   endloop
 endfacet
 facet normal -1.000000e+00 -0.000000e+00  0.000000e+00
   outer loop
     vertex -2.540000e+00  3.225000e+00  1.251000e+01
     vertex -2.540000e+00 -1.605000e+00  1.009500e+01
     vertex -2.540000e+00  8.100000e-01  1.251000e+01
   endloop
 endfacet
 facet normal  0.000000e+00 -1.000000e+00 -3.532929e-17
   outer loop
     vertex -2.540000e+00 -1.605000e+00  1.009500e+01
     vertex -2.540000e+00 -1.605000e+00  3.810000e+00
     vertex  7.620000e+00 -1.605000e+00  3.810000e+00
   endloop
 endfacet
 facet normal  0.000000e+00 -1.000000e+00 -3.532929e-17
   outer loop
     vertex -2.540000e+00 -1.605000e+00  1.009500e+01
     vertex  7.620000e+00 -1.605000e+00  3.810000e+00
     vertex  7.620000e+00 -1.605000e+00  1.009500e+01
   endloop
 endfacet
 facet normal  0.000000e+00 -7.071068e-01  7.071068e-01
   outer loop
     vertex  7.620000e+00 -1.605000e+00  1.009500e+01
     vertex -2.540000e+00  8.100000e-01  1.251000e+01
     vertex -2.540000e+00 -1.605000e+00  1.009500e+01
   endloop
 endfacet
 facet normal  0.000000e+00 -7.071068e-01  7.071068e-01
   outer loop
     vertex  7.620000e+00  8.100000e-01  1.251000e+01
     vertex -2.540000e+00  8.100000e-01  1.251000e+01
     vertex  7.620000e+00 -1.605000e+00  1.009500e+01
   endloop
 endfacet
 facet normal  0.000000e+00  0.000000e+00 -1.000000e+00
   outer loop
     vertex -2.540000e+00 -1.605000e+00  3.810000e+00
     vertex -2.540000e+00  3.225000e+00  3.810000e+00
     vertex  7.620000e+00 -1.605000e+00  3.810000e+00
   endloop
 endfacet
 facet normal  0.000000e+00  0.000000e+00 -1.000000e+00
   outer loop
     vertex  7.620000e+00 -1.605000e+00  3.810000e+00
     vertex -2.540000e+00  3.225000e+00  3.810000e+00
     vertex  7.620000e+00  3.225000e+00  3.810000e+00
   endloop
 endfacet
 facet normal  0.000000e+00  0.000000e+00  1.000000e+00
   outer loop
     vertex  7.620000e+00  8.100000e-01  1.251000e+01
     vertex -2.540000e+00  3.225000e+00  1.251000e+01
     vertex -2.540000e+00  8.100000e-01  1.251000e+01
   endloop
 endfacet
 facet normal  0.000000e+00  0.000000e+00  1.000000e+00
   outer loop
     vertex  7.620000e+00  3.225000e+00  1.251000e+01
     vertex -2.540000e+00  3.225000e+00  1.251000e+01
     vertex  7.620000e+00  8.100000e-01  1.251000e+01
   endloop
 endfacet
 facet normal  0.000000e+00  1.000000e+00  0.000000e+00
   outer loop
     vertex  7.620000e+00  3.225000e+00  1.251000e+01
     vertex  7.620000e+00  3.225000e+00  3.810000e+00
     vertex -2.540000e+00  3.225000e+00  3.810000e+00
   endloop
 endfacet
 facet normal  0.000000e+00  1.000000e+00 -0.000000e+00
   outer loop
     vertex  7.620000e+00  3.225000e+00  1.251000e+01
     vertex -2.540000e+00  3.225000e+00  3.810000e+00
     vertex -2.540000e+00  3.225000e+00  1.251000e+01
   endloop
 endfacet
 facet normal  1.000000e+00 -0.000000e+00  0.000000e+00
   outer loop
     vertex  7.620000e+00 -1.605000e+00  1.009500e+01
     vertex  7.620000e+00 -1.605000e+00  3.810000e+00
     vertex  7.620000e+00  3.225000e+00  3.810000e+00
   endloop
 endfacet
 facet normal  1.000000e+00 -0.000000e+00  0.000000e+00
   outer loop
     vertex  7.620000e+00 -1.605000e+00  1.009500e+01
     vertex  7.620000e+00  3.225000e+00  3.810000e+00
     vertex  7.620000e+00  3.225000e+00  1.251000e+01
   endloop
 endfacet
 facet normal  1.000000e+00 -0.000000e+00  0.000000e+00
   outer loop
     vertex  7.620000e+00  8.100000e-01  1.251000e+01
     vertex  7.620000e+00 -1.605000e+00  1.009500e+01
     vertex  7.620000e+00  3.225000e+00  1.251000e+01
   endloop
 endfacet
 facet normal  0.000000e+00  0.000000e+00 -1.000000e+00
   outer loop
     vertex -3.475000e-01 -2.425000e-01 -1.740000e+01
     vertex -3.475000e-01  2.425000e-01 -1.740000e+01
     vertex  3.475000e-01  2.425000e-01 -1.740000e+01
   endloop
 endfacet
 facet normal  0.000000e+00  0.000000e+00 -1.000000e+00
   outer loop
     vertex  3.475000e-01 -2.425000e-01 -1.740000e+01
     vertex -3.475000e-01 -2.425000e-01 -1.740000e+01
     vertex  3.475000e-01  2.425000e-01 -1.740000e+01
   endloop
 endfacet
 facet normal -1.000000e+00  0.000000e+00  0.000000e+00
   outer loop
     vertex -3.475000e-01  2.425000e-01 -1.740000e+01
     vertex -3.475000e-01 -2.425000e-01 -1.740000e+01
     vertex -3.475000e-01 -2.425000e-01 -6.938894e-18
   endloop
 endfacet
 facet normal -1.000000e+00 -0.000000e+00 -0.000000e+00
   outer loop
     vertex -3.475000e-01  2.425000e-01 -6.938894e-18
     vertex -3.475000e-01  2.425000e-01 -1.740000e+01
     vertex -3.475000e-01 -2.425000e-01 -6.938894e-18
   endloop
 endfacet
 facet normal  1.000000e+00  0.000000e+00 -3.190296e-18
   outer loop
     vertex  3.475000e-01 -2.425000e-01  4.857226e-17
     vertex  3.475000e-01 -2.425000e-01 -1.740000e+01
     vertex  3.475000e-01  2.425000e-01 -1.740000e+01
   endloop
 endfacet
 facet normal  1.000000e+00  0.000000e+00 -3.190296e-18
   outer loop
     vertex  3.475000e-01 -2.425000e-01  4.857226e-17
     vertex  3.475000e-01  2.425000e-01 -1.740000e+01
     vertex  3.475000e-01  2.425000e-01  4.857226e-17
   endloop
 endfacet
 facet normal -7.071068e-01 -0.000000e+00 -7.071068e-01
   outer loop
     vertex -3.475000e-01  2.425000e-01 -6.938894e-18
     vertex -3.475000e-01 -2.425000e-01 -6.938894e-18
     vertex -5.212500e-01 -2.425000e-01  1.737500e-01
   endloop
 endfacet
 facet normal -7.071068e-01  0.000000e+00 -7.071068e-01
   outer loop
     vertex -3.475000e-01  2.425000e-01 -6.938894e-18
     vertex -5.212500e-01 -2.425000e-01  1.737500e-01
     vertex -5.212500e-01  2.425000e-01  1.737500e-01
   endloop
 endfacet
 facet normal  7.071068e-01  0.000000e+00 -7.071068e-01
   outer loop
     vertex  5.212500e-01 -2.425000e-01  1.737500e-01
     vertex  3.475000e-01 -2.425000e-01  4.857226e-17
     vertex  3.475000e-01  2.425000e-01  4.857226e-17
   endloop
 endfacet
 facet normal  7.071068e-01  0.000000e+00 -7.071068e-01
   outer loop
     vertex  5.212500e-01  2.425000e-01  1.737500e-01
     vertex  5.212500e-01 -2.425000e-01  1.737500e-01
     vertex  3.475000e-01  2.425000e-01  4.857226e-17
   endloop
 endfacet
 facet normal -1.000000e+00  0.000000e+00  0.000000e+00
   outer loop
     vertex -5.212500e-01  2.425000e-01  1.737500e-01
     vertex -5.212500e-01 -2.425000e-01  1.737500e-01
     vertex -5.212500e-01  2.425000e-01  3.810000e+00
   endloop
 endfacet
 facet normal -1.000000e+00 -0.000000e+00  0.000000e+00
   outer loop
     vertex -5.212500e-01  2.425000e-01  3.810000e+00
     vertex -5.212500e-01 -2.425000e-01  1.737500e-01
     vertex -5.212500e-01 -2.425000e-01  3.810000e+00
   endloop
 endfacet
 facet normal  1.000000e+00 -0.000000e+00  0.000000e+00
   outer loop
     vertex  5.212500e-01  2.425000e-01  3.810000e+00
     vertex  5.212500e-01 -2.425000e-01  1.737500e-01
     vertex  5.212500e-01  2.425000e-01  1.737500e-01
   endloop
 endfacet
 facet normal  1.000000e+00 -0.000000e+00  0.000000e+00
   outer loop
     vertex  5.212500e-01 -2.425000e-01  3.810000e+00
     vertex  5.212500e-01 -2.425000e-01  1.737500e-01
     vertex  5.212500e-01  2.425000e-01  3.810000e+00
   endloop
 endfacet
 facet normal  0.000000e+00  0.000000e+00  1.000000e+00
   outer loop
     vertex  5.212500e-01  2.425000e-01  3.810000e+00
     vertex -5.212500e-01  2.425000e-01  3.810000e+00
     vertex -5.212500e-01 -2.425000e-01  3.810000e+00
   endloop
 endfacet
 facet normal -0.000000e+00  0.000000e+00  1.000000e+00
   outer loop
     vertex  5.212500e-01  2.425000e-01  3.810000e+00
     vertex -5.212500e-01 -2.425000e-01  3.810000e+00
     vertex  5.212500e-01 -2.425000e-01  3.810000e+00
   endloop
 endfacet
 facet normal  0.000000e+00  1.000000e+00  0.000000e+00
   outer loop
     vertex  3.475000e-01  2.425000e-01  4.857226e-17
     vertex  3.475000e-01  2.425000e-01 -1.740000e+01
     vertex -3.475000e-01  2.425000e-01 -1.740000e+01
   endloop
 endfacet
 facet normal  0.000000e+00  1.000000e+00 -0.000000e+00
   outer loop
     vertex  3.475000e-01  2.425000e-01  4.857226e-17
     vertex -3.475000e-01  2.425000e-01 -1.740000e+01
     vertex -3.475000e-01  2.425000e-01 -6.938894e-18
   endloop
 endfacet
 facet normal  0.000000e+00  1.000000e+00  0.000000e+00
   outer loop
     vertex  3.475000e-01  2.425000e-01  4.857226e-17
     vertex -3.475000e-01  2.425000e-01 -6.938894e-18
     vertex -5.212500e-01  2.425000e-01  1.737500e-01
   endloop
 endfacet
 facet normal  0.000000e+00  1.000000e+00  0.000000e+00
   outer loop
     vertex  5.212500e-01  2.425000e-01  1.737500e-01
     vertex  3.475000e-01  2.425000e-01  4.857226e-17
     vertex -5.212500e-01  2.425000e-01  1.737500e-01
   endloop
 endfacet
 facet normal  0.000000e+00  1.000000e+00 -0.000000e+00
   outer loop
     vertex  5.212500e-01  2.425000e-01  3.810000e+00
     vertex -5.212500e-01  2.425000e-01  1.737500e-01
     vertex -5.212500e-01  2.425000e-01  3.810000e+00
   endloop
 endfacet
 facet normal  0.000000e+00  1.000000e+00  0.000000e+00
   outer loop
     vertex  5.212500e-01  2.425000e-01  3.810000e+00
     vertex  5.212500e-01  2.425000e-01  1.737500e-01
     vertex -5.212500e-01  2.425000e-01  1.737500e-01
   endloop
 endfacet
 facet normal  0.000000e+00 -1.000000e+00  0.000000e+00
   outer loop
     vertex -3.475000e-01 -2.425000e-01 -1.740000e+01
     vertex  3.475000e-01 -2.425000e-01 -1.740000e+01
     vertex  3.475000e-01 -2.425000e-01  4.857226e-17
   endloop
 endfacet
 facet normal  0.000000e+00 -1.000000e+00  0.000000e+00
   outer loop
     vertex -3.475000e-01 -2.425000e-01 -6.938894e-18
     vertex -3.475000e-01 -2.425000e-01 -1.740000e+01
     vertex  3.475000e-01 -2.425000e-01  4.857226e-17
   endloop
 endfacet
 facet normal  0.000000e+00 -1.000000e+00  0.000000e+00
   outer loop
     vertex -5.212500e-01 -2.425000e-01  1.737500e-01
     vertex -3.475000e-01 -2.425000e-01 -6.938894e-18
     vertex  5.212500e-01 -2.425000e-01  1.737500e-01
   endloop
 endfacet
 facet normal  0.000000e+00 -1.000000e+00  0.000000e+00
   outer loop
     vertex -3.475000e-01 -2.425000e-01 -6.938894e-18
     vertex  3.475000e-01 -2.425000e-01  4.857226e-17
     vertex  5.212500e-01 -2.425000e-01  1.737500e-01
   endloop
 endfacet
 facet normal  0.000000e+00 -1.000000e+00  0.000000e+00
   outer loop
     vertex -5.212500e-01 -2.425000e-01  3.810000e+00
     vertex -5.212500e-01 -2.425000e-01  1.737500e-01
     vertex  5.212500e-01 -2.425000e-01  3.810000e+00
   endloop
 endfacet
 facet normal  0.000000e+00 -1.000000e+00  0.000000e+00
   outer loop
     vertex -5.212500e-01 -2.425000e-01  1.737500e-01
     vertex  5.212500e-01 -2.425000e-01  1.737500e-01
     vertex  5.212500e-01 -2.425000e-01  3.810000e+00
   endloop
 endfacet
 facet normal  0.000000e+00  0.000000e+00 -1.000000e+00
   outer loop
     vertex  2.192500e+00 -2.425000e-01 -1.740000e+01
     vertex  2.192500e+00  2.425000e-01 -1.740000e+01
     vertex  2.887500e+00  2.425000e-01 -1.740000e+01
   endloop
 endfacet
 facet normal  0.000000e+00  0.000000e+00 -1.000000e+00
   outer loop
     vertex  2.887500e+00 -2.425000e-01 -1.740000e+01
     vertex  2.192500e+00 -2.425000e-01 -1.740000e+01
     vertex  2.887500e+00  2.425000e-01 -1.740000e+01
   endloop
 endfacet
 facet normal -1.000000e+00  0.000000e+00  0.000000e+00
   outer loop
     vertex  2.192500e+00  2.425000e-01 -1.740000e+01
     vertex  2.192500e+00 -2.425000e-01 -1.740000e+01
     vertex  2.192500e+00 -2.425000e-01 -6.938894e-18
   endloop
 endfacet
 facet normal -1.000000e+00 -0.000000e+00 -0.000000e+00
   outer loop
     vertex  2.192500e+00  2.425000e-01 -6.938894e-18
     vertex  2.192500e+00  2.425000e-01 -1.740000e+01
     vertex  2.192500e+00 -2.425000e-01 -6.938894e-18
   endloop
 endfacet
 facet normal  1.000000e+00 -0.000000e+00  0.000000e+00
   outer loop
     vertex  2.887500e+00 -2.425000e-01  4.857226e-17
     vertex  2.887500e+00 -2.425000e-01 -1.740000e+01
     vertex  2.887500e+00  2.425000e-01 -1.740000e+01
   endloop
 endfacet
 facet normal  1.000000e+00 -0.000000e+00  0.000000e+00
   outer loop
     vertex  2.887500e+00 -2.425000e-01  4.857226e-17
     vertex  2.887500e+00  2.425000e-01 -1.740000e+01
     vertex  2.887500e+00  2.425000e-01  4.857226e-17
   endloop
 endfacet
 facet normal -7.071068e-01  0.000000e+00 -7.071068e-01
   outer loop
     vertex  2.018750e+00  2.425000e-01  1.737500e-01
     vertex  2.192500e+00 -2.425000e-01 -6.938894e-18
     vertex  2.018750e+00 -2.425000e-01  1.737500e-01
   endloop
 endfacet
 facet normal -7.071068e-01 -0.000000e+00 -7.071068e-01
   outer loop
     vertex  2.192500e+00  2.425000e-01 -6.938894e-18
     vertex  2.192500e+00 -2.425000e-01 -6.938894e-18
     vertex  2.018750e+00  2.425000e-01  1.737500e-01
   endloop
 endfacet
 facet normal  7.071068e-01  0.000000e+00 -7.071068e-01
   outer loop
     vertex  3.061250e+00 -2.425000e-01  1.737500e-01
     vertex  2.887500e+00 -2.425000e-01  4.857226e-17
     vertex  2.887500e+00  2.425000e-01  4.857226e-17
   endloop
 endfacet
 facet normal  7.071068e-01  0.000000e+00 -7.071068e-01
   outer loop
     vertex  3.061250e+00  2.425000e-01  1.737500e-01
     vertex  3.061250e+00 -2.425000e-01  1.737500e-01
     vertex  2.887500e+00  2.425000e-01  4.857226e-17
   endloop
 endfacet
 facet normal -1.000000e+00  0.000000e+00  0.000000e+00
   outer loop
     vertex  2.018750e+00  2.425000e-01  1.737500e-01
     vertex  2.018750e+00 -2.425000e-01  1.737500e-01
     vertex  2.018750e+00  2.425000e-01  3.810000e+00
   endloop
 endfacet
 facet normal -1.000000e+00 -0.000000e+00  0.000000e+00
   outer loop
     vertex  2.018750e+00  2.425000e-01  3.810000e+00
     vertex  2.018750e+00 -2.425000e-01  1.737500e-01
     vertex  2.018750e+00 -2.425000e-01  3.810000e+00
   endloop
 endfacet
 facet normal  1.000000e+00 -0.000000e+00  0.000000e+00
   outer loop
     vertex  3.061250e+00  2.425000e-01  3.810000e+00
     vertex  3.061250e+00 -2.425000e-01  1.737500e-01
     vertex  3.061250e+00  2.425000e-01  1.737500e-01
   endloop
 endfacet
 facet normal  1.000000e+00 -0.000000e+00  0.000000e+00
   outer loop
     vertex  3.061250e+00 -2.425000e-01  3.810000e+00
     vertex  3.061250e+00 -2.425000e-01  1.737500e-01
     vertex  3.061250e+00  2.425000e-01  3.810000e+00
   endloop
 endfacet
 facet normal  0.000000e+00  0.000000e+00  1.000000e+00
   outer loop
     vertex  3.061250e+00  2.425000e-01  3.810000e+00
     vertex  2.018750e+00  2.425000e-01  3.810000e+00
     vertex  2.018750e+00 -2.425000e-01  3.810000e+00
   endloop
 endfacet
 facet normal -0.000000e+00  0.000000e+00  1.000000e+00
   outer loop
     vertex  3.061250e+00  2.425000e-01  3.810000e+00
     vertex  2.018750e+00 -2.425000e-01  3.810000e+00
     vertex  3.061250e+00 -2.425000e-01  3.810000e+00
   endloop
 endfacet
 facet normal  0.000000e+00  1.000000e+00  0.000000e+00
   outer loop
     vertex  2.887500e+00  2.425000e-01  4.857226e-17
     vertex  2.887500e+00  2.425000e-01 -1.740000e+01
     vertex  2.192500e+00  2.425000e-01 -1.740000e+01
   endloop
 endfacet
 facet normal  0.000000e+00  1.000000e+00 -0.000000e+00
   outer loop
     vertex  2.887500e+00  2.425000e-01  4.857226e-17
     vertex  2.192500e+00  2.425000e-01 -1.740000e+01
     vertex  2.192500e+00  2.425000e-01 -6.938894e-18
   endloop
 endfacet
 facet normal  0.000000e+00  1.000000e+00  0.000000e+00
   outer loop
     vertex  2.887500e+00  2.425000e-01  4.857226e-17
     vertex  2.192500e+00  2.425000e-01 -6.938894e-18
     vertex  2.018750e+00  2.425000e-01  1.737500e-01
   endloop
 endfacet
 facet normal  0.000000e+00  1.000000e+00  0.000000e+00
   outer loop
     vertex  3.061250e+00  2.425000e-01  1.737500e-01
     vertex  2.887500e+00  2.425000e-01  4.857226e-17
     vertex  2.018750e+00  2.425000e-01  1.737500e-01
   endloop
 endfacet
 facet normal  0.000000e+00  1.000000e+00 -0.000000e+00
   outer loop
     vertex  3.061250e+00  2.425000e-01  3.810000e+00
     vertex  2.018750e+00  2.425000e-01  1.737500e-01
     vertex  2.018750e+00  2.425000e-01  3.810000e+00
   endloop
 endfacet
 facet normal  0.000000e+00  1.000000e+00  0.000000e+00
   outer loop
     vertex  3.061250e+00  2.425000e-01  3.810000e+00
     vertex  3.061250e+00  2.425000e-01  1.737500e-01
     vertex  2.018750e+00  2.425000e-01  1.737500e-01
   endloop
 endfacet
 facet normal  0.000000e+00 -1.000000e+00  0.000000e+00
   outer loop
     vertex  2.192500e+00 -2.425000e-01 -1.740000e+01
     vertex  2.887500e+00 -2.425000e-01 -1.740000e+01
     vertex  2.887500e+00 -2.425000e-01  4.857226e-17
   endloop
 endfacet
 facet normal  0.000000e+00 -1.000000e+00  0.000000e+00
   outer loop
     vertex  2.192500e+00 -2.425000e-01 -6.938894e-18
     vertex  2.192500e+00 -2.425000e-01 -1.740000e+01
     vertex  2.887500e+00 -2.425000e-01  4.857226e-17
   endloop
 endfacet
 facet normal  0.000000e+00 -1.000000e+00  0.000000e+00
   outer loop
     vertex  2.018750e+00 -2.425000e-01  1.737500e-01
     vertex  2.192500e+00 -2.425000e-01 -6.938894e-18
     vertex  3.061250e+00 -2.425000e-01  1.737500e-01
   endloop
 endfacet
 facet normal  0.000000e+00 -1.000000e+00  0.000000e+00
   outer loop
     vertex  2.192500e+00 -2.425000e-01 -6.938894e-18
     vertex  2.887500e+00 -2.425000e-01  4.857226e-17
     vertex  3.061250e+00 -2.425000e-01  1.737500e-01
   endloop
 endfacet
 facet normal  0.000000e+00 -1.000000e+00  0.000000e+00
   outer loop
     vertex  2.018750e+00 -2.425000e-01  3.810000e+00
     vertex  2.018750e+00 -2.425000e-01  1.737500e-01
     vertex  3.061250e+00 -2.425000e-01  3.810000e+00
   endloop
 endfacet
 facet normal  0.000000e+00 -1.000000e+00  0.000000e+00
   outer loop
     vertex  2.018750e+00 -2.425000e-01  1.737500e-01
     vertex  3.061250e+00 -2.425000e-01  1.737500e-01
     vertex  3.061250e+00 -2.425000e-01  3.810000e+00
   endloop
 endfacet
 facet normal  0.000000e+00  0.000000e+00 -1.000000e+00
   outer loop
     vertex  4.732500e+00 -2.425000e-01 -1.740000e+01
     vertex  4.732500e+00  2.425000e-01 -1.740000e+01
     vertex  5.427500e+00  2.425000e-01 -1.740000e+01
   endloop
 endfacet
 facet normal  0.000000e+00  0.000000e+00 -1.000000e+00
   outer loop
     vertex  5.427500e+00 -2.425000e-01 -1.740000e+01
     vertex  4.732500e+00 -2.425000e-01 -1.740000e+01
     vertex  5.427500e+00  2.425000e-01 -1.740000e+01
   endloop
 endfacet
 facet normal -1.000000e+00  0.000000e+00  0.000000e+00
   outer loop
     vertex  4.732500e+00  2.425000e-01 -1.740000e+01
     vertex  4.732500e+00 -2.425000e-01 -1.740000e+01
     vertex  4.732500e+00 -2.425000e-01 -6.938894e-18
   endloop
 endfacet
 facet normal -1.000000e+00 -0.000000e+00 -0.000000e+00
   outer loop
     vertex  4.732500e+00  2.425000e-01 -6.938894e-18
     vertex  4.732500e+00  2.425000e-01 -1.740000e+01
     vertex  4.732500e+00 -2.425000e-01 -6.938894e-18
   endloop
 endfacet
 facet normal  1.000000e+00 -0.000000e+00  0.000000e+00
   outer loop
     vertex  5.427500e+00 -2.425000e-01  4.857226e-17
     vertex  5.427500e+00 -2.425000e-01 -1.740000e+01
     vertex  5.427500e+00  2.425000e-01 -1.740000e+01
   endloop
 endfacet
 facet normal  1.000000e+00 -0.000000e+00  0.000000e+00
   outer loop
     vertex  5.427500e+00 -2.425000e-01  4.857226e-17
     vertex  5.427500e+00  2.425000e-01 -1.740000e+01
     vertex  5.427500e+00  2.425000e-01  4.857226e-17
   endloop
 endfacet
 facet normal -7.071068e-01  0.000000e+00 -7.071068e-01
   outer loop
     vertex  4.558750e+00  2.425000e-01  1.737500e-01
     vertex  4.732500e+00 -2.425000e-01 -6.938894e-18
     vertex  4.558750e+00 -2.425000e-01  1.737500e-01
   endloop
 endfacet
 facet normal -7.071068e-01 -0.000000e+00 -7.071068e-01
   outer loop
     vertex  4.732500e+00  2.425000e-01 -6.938894e-18
     vertex  4.732500e+00 -2.425000e-01 -6.938894e-18
     vertex  4.558750e+00  2.425000e-01  1.737500e-01
   endloop
 endfacet
 facet normal  7.071068e-01  0.000000e+00 -7.071068e-01
   outer loop
     vertex  5.601250e+00 -2.425000e-01  1.737500e-01
     vertex  5.427500e+00 -2.425000e-01  4.857226e-17
     vertex  5.427500e+00  2.425000e-01  4.857226e-17
   endloop
 endfacet
 facet normal  7.071068e-01  0.000000e+00 -7.071068e-01
   outer loop
     vertex  5.601250e+00  2.425000e-01  1.737500e-01
     vertex  5.601250e+00 -2.425000e-01  1.737500e-01
     vertex  5.427500e+00  2.425000e-01  4.857226e-17
   endloop
 endfacet
 facet normal -1.000000e+00  0.000000e+00  0.000000e+00
   outer loop
     vertex  4.558750e+00  2.425000e-01  1.737500e-01
     vertex  4.558750e+00 -2.425000e-01  1.737500e-01
     vertex  4.558750e+00  2.425000e-01  3.810000e+00
   endloop
 endfacet
 facet normal -1.000000e+00 -0.000000e+00  0.000000e+00
   outer loop
     vertex  4.558750e+00  2.425000e-01  3.810000e+00
     vertex  4.558750e+00 -2.425000e-01  1.737500e-01
     vertex  4.558750e+00 -2.425000e-01  3.810000e+00
   endloop
 endfacet
 facet normal  1.000000e+00 -0.000000e+00  0.000000e+00
   outer loop
     vertex  5.601250e+00  2.425000e-01  3.810000e+00
     vertex  5.601250e+00 -2.425000e-01  1.737500e-01
     vertex  5.601250e+00  2.425000e-01  1.737500e-01
   endloop
 endfacet
 facet normal  1.000000e+00 -0.000000e+00  0.000000e+00
   outer loop
     vertex  5.601250e+00 -2.425000e-01  3.810000e+00
     vertex  5.601250e+00 -2.425000e-01  1.737500e-01
     vertex  5.601250e+00  2.425000e-01  3.810000e+00
   endloop
 endfacet
 facet normal  0.000000e+00  0.000000e+00  1.000000e+00
   outer loop
     vertex  5.601250e+00  2.425000e-01  3.810000e+00
     vertex  4.558750e+00  2.425000e-01  3.810000e+00
     vertex  4.558750e+00 -2.425000e-01  3.810000e+00
   endloop
 endfacet
 facet normal -0.000000e+00  0.000000e+00  1.000000e+00
   outer loop
     vertex  5.601250e+00  2.425000e-01  3.810000e+00
     vertex  4.558750e+00 -2.425000e-01  3.810000e+00
     vertex  5.601250e+00 -2.425000e-01  3.810000e+00
   endloop
 endfacet
 facet normal  0.000000e+00  1.000000e+00  0.000000e+00
   outer loop
     vertex  5.427500e+00  2.425000e-01  4.857226e-17
     vertex  5.427500e+00  2.425000e-01 -1.740000e+01
     vertex  4.732500e+00  2.425000e-01 -1.740000e+01
   endloop
 endfacet
 facet normal  0.000000e+00  1.000000e+00 -0.000000e+00
   outer loop
     vertex  5.427500e+00  2.425000e-01  4.857226e-17
     vertex  4.732500e+00  2.425000e-01 -1.740000e+01
     vertex  4.732500e+00  2.425000e-01 -6.938894e-18
   endloop
 endfacet
 facet normal  0.000000e+00  1.000000e+00  0.000000e+00
   outer loop
     vertex  5.427500e+00  2.425000e-01  4.857226e-17
     vertex  4.732500e+00  2.425000e-01 -6.938894e-18
     vertex  4.558750e+00  2.425000e-01  1.737500e-01
   endloop
 endfacet
 facet normal  0.000000e+00  1.000000e+00  0.000000e+00
   outer loop
     vertex  5.601250e+00  2.425000e-01  1.737500e-01
     vertex  5.427500e+00  2.425000e-01  4.857226e-17
     vertex  4.558750e+00  2.425000e-01  1.737500e-01
   endloop
 endfacet
 facet normal  0.000000e+00  1.000000e+00 -0.000000e+00
   outer loop
     vertex  5.601250e+00  2.425000e-01  3.810000e+00
     vertex  4.558750e+00  2.425000e-01  1.737500e-01
     vertex  4.558750e+00  2.425000e-01  3.810000e+00
   endloop
 endfacet
 facet normal  0.000000e+00  1.000000e+00  0.000000e+00
   outer loop
     vertex  5.601250e+00  2.425000e-01  3.810000e+00
     vertex  5.601250e+00  2.425000e-01  1.737500e-01
     vertex  4.558750e+00  2.425000e-01  1.737500e-01
   endloop
 endfacet
 facet normal  0.000000e+00 -1.000000e+00  0.000000e+00
   outer loop
     vertex  4.732500e+00 -2.425000e-01 -1.740000e+01
     vertex  5.427500e+00 -2.425000e-01 -1.740000e+01
     vertex  5.427500e+00 -2.425000e-01  4.857226e-17
   endloop
 endfacet
 facet normal  0.000000e+00 -1.000000e+00  0.000000e+00
   outer loop
     vertex  4.732500e+00 -2.425000e-01 -6.938894e-18
     vertex  4.732500e+00 -2.425000e-01 -1.740000e+01
     vertex  5.427500e+00 -2.425000e-01  4.857226e-17
   endloop
 endfacet
 facet normal  0.000000e+00 -1.000000e+00  0.000000e+00
   outer loop
     vertex  4.558750e+00 -2.425000e-01  1.737500e-01
     vertex  4.732500e+00 -2.425000e-01 -6.938894e-18
     vertex  5.601250e+00 -2.425000e-01  1.737500e-01
   endloop
 endfacet
 facet normal  0.000000e+00 -1.000000e+00  0.000000e+00
   outer loop
     vertex  4.732500e+00 -2.425000e-01 -6.938894e-18
     vertex  5.427500e+00 -2.425000e-01  4.857226e-17
     vertex  5.601250e+00 -2.425000e-01  1.737500e-01
   endloop
 endfacet
 facet normal  0.000000e+00 -1.000000e+00  0.000000e+00
   outer loop
     vertex  4.558750e+00 -2.425000e-01  3.810000e+00
     vertex  4.558750e+00 -2.425000e-01  1.737500e-01
     vertex  5.601250e+00 -2.425000e-01  3.810000e+00
   endloop
 endfacet
 facet normal  0.000000e+00 -1.000000e+00  0.000000e+00
   outer loop
     vertex  4.558750e+00 -2.425000e-01  1.737500e-01
     vertex  5.601250e+00 -2.425000e-01  1.737500e-01
     vertex  5.601250e+00 -2.425000e-01  3.810000e+00
   endloop
 endfacet
endsolid
